ply
format ascii 1.0
element vertex 1197
property float x
property float y
property float z
end_header
98.37758 0.6770164 -2.066733
73.8105 0.5127481 -2.01211
59.01064 0.3338685 -2.090354
49.17469 0.3328146 -2.047658
42.08704 0.2816855 -2.017881
9.070264 0.05209821 -0.5147851
8.787541 0.04993016 -0.5474368
8.577987 0.05214227 -0.5993217
8.412618 0.05426584 -0.6455866
8.254679 0.04595466 -0.6968501
8.171181 0.05392106 -0.7436665
8.122083 0.05334482 -0.8013861
8.095553 0.04943474 -0.8575814
8.054946 0.04413595 -0.9031261
8.023706 0.05338511 -0.9550393
7.996529 0.0522731 -1.017129
7.953197 0.04837902 -1.055309
7.931937 0.04440385 -1.119252
7.911373 0.05319307 -1.159846
7.898318 0.04798874 -1.219735
7.897357 0.04799448 -1.280877
7.892326 0.05449726 -1.340597
7.879972 0.05085915 -1.382957
7.879218 0.04528832 -1.438593
7.879011 0.05246491 -1.501992
7.872464 0.05028491 -1.560817
7.888323 0.05521905 -1.612481
7.889178 0.05185197 -1.682624
7.897569 0.05456731 -1.732273
7.891538 0.05656543 -1.796359
7.899179 0.05479842 -1.858602
8.4902 0.06080913 -2.0497
8.236715 0.04850198 -2.049135
8.005472 0.04346117 -2.0569
7.776464 0.05007052 -2.047896
7.564742 0.04517785 -2.051568
7.361856 0.042914 -2.062859
7.17488 0.05231164 -2.057518
6.988316 0.03973118 -2.058872
6.80933 0.04721194 -2.052211
6.636785 0.04754581 -2.05254
6.478085 0.03432854 -2.055143
6.325893 0.03315761 -2.051961
6.177813 0.04002073 -2.053681
6.036541 0.04025141 -2.056155
5.897418 0.03878996 -2.050522
5.768387 0.03507351 -2.049689
5.647766 0.04000673 -2.057349
5.530747 0.03403989 -2.056959
5.415725 0.03870244 -2.053926
5.29717 0.03887888 -2.058771
5.197157 0.03210795 -2.058993
5.092803 0.03480702 -2.058739
4.982665 0.03602682 -2.060904
4.884682 0.0259138 -2.052095
4.793479 0.03390295 -2.053227
4.708901 0.0308697 -2.05985
98.38496 0.08615102 -2.035599
73.71304 -0.01829065 -1.989303
59.04119 -0.04011238 -2.053225
49.15229 0.009907868 -2.099566
42.12694 -0.02003105 -2.079623
9.037268 2.273731E-05 -0.5070443
8.783332 0.002923301 -0.5449744
8.580731 0.007610545 -0.607362
8.402778 -0.002720627 -0.6471311
8.268977 0.004771309 -0.6929803
8.198304 -0.004104665 -0.75307
8.153698 -0.004722577 -0.8064968
8.127965 -0.001872867 -0.8559312
8.083248 -0.001945904 -0.9009131
8.048469 -0.005206807 -0.9596232
8.021021 0.006962372 -1.006717
7.984264 0.007719039 -1.071902
7.961151 -0.0001630171 -1.118896
7.939568 0.006433072 -1.167696
7.927458 -0.00488324 -1.2288
7.919692 -0.001033129 -1.27965
7.913805 -0.0003052009 -1.33877
7.919529 0.007983146 -1.40032
7.902564 0.005974869 -1.453651
7.894627 -0.005942926 -1.503142
7.910716 -0.006075092 -1.564018
7.912323 0.007138672 -1.621051
7.913671 0.001728135 -1.676467
7.910288 -0.0006385723 -1.736115
7.910843 -0.00633542 -1.803924
7.912345 -0.000258575 -1.852078
8.493078 -0.002077603 -2.05455
8.23675 -0.001393797 -2.048748
8.011047 -0.007748813 -2.049452
7.783733 0.0009693464 -2.050259
7.571424 -0.001774486 -2.058188
7.354821 0.007474035 -2.049265
7.16759 -0.002658792 -2.06253
6.981654 0.0033268 -2.051803
6.806123 -0.006304447 -2.058949
6.640014 0.004558204 -2.054214
6.473669 -0.0003240015 -2.054322
6.324321 -0.001348641 -2.049129
6.173253 0.005623069 -2.057756
6.035904 0.001403803 -2.059395
5.899205 0.0009265165 -2.049614
5.771862 -0.005470473 -2.055678
5.646237 -0.003342185 -2.049921
5.528163 0.001502066 -2.058098
5.411664 -0.002591833 -2.052451
5.304541 -0.002852719 -2.054986
5.195403 -0.005475286 -2.057284
5.086128 0.0005729571 -2.054597
4.987467 -0.0003664056 -2.058966
4.887148 0.004883114 -2.056191
4.796803 -2.137898E-05 -2.054055
4.703918 -0.004580073 -2.059616
98.36988 -0.6433681 -2.021231
73.80193 -0.5245906 -2.03481
58.97444 -0.4225493 -2.046223
49.17275 -0.2609551 -2.076878
42.12664 -0.2758788 -2.045858
9.010331 -0.04802896 -0.4970208
8.775794 -0.05622257 -0.5589152
8.584938 -0.04852139 -0.6026004
8.429704 -0.05092357 -0.6499378
8.297893 -0.04517601 -0.6896284
8.21695 -0.05734403 -0.7417641
8.178632 -0.05094708 -0.7961072
8.146123 -0.04852432 -0.8560544
8.111391 -0.05797549 -0.9046243
8.084383 -0.05416056 -0.9562937
8.053988 -0.05329255 -1.021333
8.021465 -0.05123751 -1.06184
7.991049 -0.04834037 -1.114997
7.956853 -0.04739725 -1.178645
7.960074 -0.05383131 -1.224623
7.954377 -0.04307802 -1.290726
7.93695 -0.04520114 -1.344171
7.941826 -0.05114419 -1.401957
7.929317 -0.04302787 -1.460668
7.934556 -0.05211097 -1.510443
7.939885 -0.04572559 -1.577171
7.929419 -0.04524063 -1.625721
7.93789 -0.0497784 -1.690012
7.946648 -0.04608222 -1.737972
7.937004 -0.05420453 -1.808691
7.951842 -0.05381366 -1.861301
8.488156 -0.04969481 -2.061383
8.237989 -0.05150555 -2.048001
8.002719 -0.04740244 -2.048894
7.776056 -0.04448608 -2.049579
7.558312 -0.04660306 -2.060047
7.364239 -0.05136539 -2.055082
7.167625 -0.0512403 -2.06216
6.991229 -0.04909071 -2.059732
6.806122 -0.04844794 -2.05686
6.640838 -0.04093439 -2.052264
6.480264 -0.03528951 -2.051386
6.332181 -0.03806662 -2.056412
6.172633 -0.04485053 -2.05111
6.035063 -0.04418916 -2.060435
5.902709 -0.03082307 -2.059433
5.772622 -0.04120868 -2.052856
5.651768 -0.03224318 -2.055015
5.531799 -0.03246466 -2.057118
5.406241 -0.02910844 -2.051039
5.298588 -0.03291617 -2.055991
5.186644 -0.02858423 -2.056666
5.092126 -0.02773212 -2.058993
4.98732 -0.02767445 -2.051
4.886132 -0.03320895 -2.054518
4.795931 -0.03391931 -2.059603
4.704268 -0.0271241 -2.056
98.28785 -1.308045 -2.087143
73.74615 -0.8800263 -2.120215
59.00112 -0.6959041 -2.080576
49.18027 -0.6547368 -2.084554
9.348303 -0.1144078 -0.4595693
9.011568 -0.1042033 -0.5097477
8.782276 -0.1113572 -0.5447733
8.586745 -0.1089244 -0.6087024
8.450048 -0.09955371 -0.6432606
8.325294 -0.09769008 -0.691034
8.258684 -0.1096208 -0.7450438
8.2101 -0.09538637 -0.8050445
8.169935 -0.1007986 -0.864767
8.144217 -0.1093373 -0.9075153
8.11369 -0.1018554 -0.9731856
8.072275 -0.101339 -1.025039
8.044251 -0.1047188 -1.070952
8.012963 -0.1022485 -1.125864
7.987872 -0.107426 -1.182608
7.986224 -0.09795912 -1.239643
7.976017 -0.09879084 -1.297073
7.967622 -0.09607168 -1.341537
7.961248 -0.09897093 -1.403779
7.952647 -0.09975437 -1.46393
7.967087 -0.1071005 -1.523259
7.950531 -0.0981998 -1.572818
7.937312 -0.09741282 -1.622983
7.935775 -0.09734051 -1.68436
7.946337 -0.09562553 -1.746803
7.96801 -0.09827398 -1.806559
7.997521 -0.09362029 -1.87806
8.116499 -0.1045075 -1.959009
8.250473 -0.104644 -2.055991
7.997653 -0.1032805 -2.049351
7.783323 -0.09927872 -2.04912
7.572252 -0.1016322 -2.054933
7.357048 -0.09460672 -2.055613
7.16915 -0.08631846 -2.058068
6.989851 -0.08414295 -2.051189
6.802664 -0.08229319 -2.056144
6.633648 -0.08628523 -2.05231
6.479705 -0.07794787 -2.060752
6.33209 -0.07354372 -2.049493
6.176095 -0.08411824 -2.051237
6.038261 -0.07144931 -2.052718
5.897045 -0.07695019 -2.055753
5.77535 -0.07744873 -2.054836
5.6512 -0.07196686 -2.053737
5.523804 -0.06931777 -2.051913
5.413983 -0.07221199 -2.051794
5.298414 -0.06285964 -2.057066
5.191464 -0.06530759 -2.059844
5.092274 -0.06936596 -2.056028
4.988321 -0.06133735 -2.050578
4.887878 -0.06019964 -2.058534
4.793247 -0.05943038 -2.054043
4.70533 -0.05468488 -2.050783
98.33138 -1.82869 -1.993606
73.80511 -1.433256 -2.012195
58.9665 -1.130408 -2.017105
49.1455 -0.8784946 -2.105416
9.271669 -0.1784249 -0.4583364
9.001892 -0.1654175 -0.5051953
8.789725 -0.1589681 -0.5527447
8.599517 -0.1561772 -0.5943725
8.474677 -0.1533296 -0.6588029
8.35595 -0.1654775 -0.7017961
8.293542 -0.1488978 -0.7465865
8.241991 -0.1534683 -0.8122746
8.205301 -0.1591757 -0.8559316
8.179121 -0.1578411 -0.9089351
8.145655 -0.1545223 -0.9640644
8.117713 -0.1589261 -1.031991
8.087081 -0.1469329 -1.081964
8.048318 -0.1557045 -1.138863
8.023488 -0.1481614 -1.188773
8.020141 -0.150287 -1.240525
8.007462 -0.1485903 -1.288882
7.989349 -0.143232 -1.350998
7.986633 -0.1514126 -1.407186
7.978191 -0.154349 -1.470557
7.963935 -0.1436976 -1.526617
7.953329 -0.1542998 -1.580401
7.960815 -0.1566758 -1.640867
7.966706 -0.1434289 -1.701859
7.975001 -0.1493822 -1.760292
7.981437 -0.1434172 -1.811951
7.992651 -0.1517369 -1.869138
8.034535 -0.1521479 -1.937643
8.242732 -0.1576086 -2.054837
8.000154 -0.1508722 -2.051253
7.77208 -0.152421 -2.057693
7.567621 -0.1451155 -2.049891
7.360414 -0.1431145 -2.049108
7.167892 -0.1350608 -2.058183
6.979153 -0.1331497 -2.05848
6.802518 -0.1279395 -2.062317
6.637516 -0.1204352 -2.06063
6.474675 -0.1246331 -2.058347
6.318887 -0.123139 -2.052725
6.183126 -0.1123623 -2.05198
6.039467 -0.111646 -2.0615
5.907622 -0.1148428 -2.058959
5.768501 -0.113204 -2.056671
5.651421 -0.1077965 -2.057623
5.522975 -0.106483 -2.053636
5.407741 -0.1049008 -2.054768
5.293324 -0.1049147 -2.058863
5.188977 -0.0979362 -2.055889
5.082786 -0.09791843 -2.057334
4.989399 -0.09679305 -2.051847
4.892469 -0.09003957 -2.055815
4.790885 -0.08547108 -2.057849
4.704392 -0.08708741 -2.051445
98.37115 -2.47825 -2.063259
73.65334 -1.897637 -1.989771
59.0012 -1.462513 -2.054612
49.16729 -1.270228 -2.094551
9.251438 -0.2330196 -0.4502203
8.97503 -0.2187074 -0.4995421
8.792901 -0.2265969 -0.5460529
8.626564 -0.223054 -0.6066936
8.487272 -0.2056178 -0.6623556
8.376454 -0.2154887 -0.7080935
8.311103 -0.2017137 -0.7608353
8.272845 -0.2151069 -0.8107148
8.243787 -0.2131308 -0.8659807
8.20752 -0.2100153 -0.9237008
8.18228 -0.198877 -0.9781987
8.15196 -0.1977412 -1.022984
8.117019 -0.2108195 -1.078894
8.082544 -0.2078227 -1.143514
8.064737 -0.1999058 -1.193104
8.042463 -0.2029564 -1.252874
8.039849 -0.210115 -1.294648
8.022445 -0.2061006 -1.357358
8.011423 -0.2001874 -1.416466
7.996156 -0.2084894 -1.467402
7.994106 -0.1948404 -1.520534
7.992196 -0.207737 -1.585001
8.010348 -0.20573 -1.649385
8.008335 -0.2037891 -1.702737
8.020783 -0.2059842 -1.771471
8.022658 -0.2065893 -1.819334
8.03666 -0.2056478 -1.889769
8.043152 -0.2049455 -1.947537
8.23596 -0.2087386 -2.047061
8.01081 -0.2021453 -2.05021
7.783454 -0.1984677 -2.06093
7.570373 -0.1872833 -2.057905
7.356333 -0.1893743 -2.062549
7.167238 -0.1750273 -2.060445
6.986999 -0.180105 -2.05527
6.804743 -0.1667818 -2.05932
6.636476 -0.1692664 -2.062425
6.47198 -0.1632644 -2.062171
6.330863 -0.1534791 -2.059937
6.180894 -0.1590741 -2.051078
6.038382 -0.1534287 -2.053079
5.905227 -0.1530437 -2.052908
5.7651 -0.1501268 -2.05599
5.648792 -0.1380218 -2.060706
5.531136 -0.1428452 -2.060833
5.408829 -0.1386124 -2.052057
5.298173 -0.132201 -2.056671
5.190971 -0.1289542 -2.055447
5.087118 -0.1296528 -2.052156
4.989865 -0.1290814 -2.052421
4.886985 -0.1280144 -2.053514
4.797298 -0.1225524 -2.054477
4.701882 -0.12113 -2.058166
98.20576 -3.177271 -2.078354
73.76987 -2.353784 -2.037175
58.98106 -1.900486 -2.025776
49.13748 -1.494997 -2.037082
9.221235 -0.2955213 -0.4583251
8.985691 -0.2753428 -0.5009483
8.801502 -0.2829521 -0.5511253
8.648279 -0.2759176 -0.6066949
8.511444 -0.2744724 -0.6502982
8.414748 -0.2617165 -0.7014472
8.354974 -0.2599826 -0.7647708
8.301885 -0.2626101 -0.8175807
8.278805 -0.2627543 -0.8617531
8.24596 -0.258632 -0.9229976
8.210612 -0.2598158 -0.9803349
8.178756 -0.2559586 -1.030904
8.155076 -0.261013 -1.082122
8.122126 -0.2535318 -1.134321
8.096135 -0.2512704 -1.20183
8.079589 -0.2611204 -1.246538
8.075865 -0.2486655 -1.311574
8.059671 -0.2453734 -1.360801
8.04292 -0.2546671 -1.418882
8.024209 -0.2489481 -1.469814
8.033053 -0.2556083 -1.534438
8.042738 -0.2576002 -1.594107
8.050709 -0.2458548 -1.64828
8.052089 -0.2570496 -1.721591
8.064765 -0.2597659 -1.778997
8.076097 -0.2506158 -1.837257
8.071632 -0.2537112 -1.888752
8.091005 -0.2459202 -1.964276
8.248609 -0.2547235 -2.055027
8.008793 -0.2445777 -2.053136
7.77485 -0.246453 -2.060352
7.569252 -0.2300364 -2.051884
7.358147 -0.2380448 -2.063056
7.169066 -0.2310518 -2.060602
6.984148 -0.2251909 -2.055836
6.79844 -0.2184712 -2.0492
6.632474 -0.2066215 -2.052491
6.477727 -0.2016977 -2.056254
6.327492 -0.1983508 -2.057952
6.171037 -0.1923085 -2.061011
6.035996 -0.1931216 -2.061235
5.896138 -0.1880867 -2.050229
5.765856 -0.17812 -2.053082
5.639608 -0.1769746 -2.054282
5.526108 -0.1753642 -2.05684
5.405746 -0.1672654 -2.04999
5.29827 -0.1687462 -2.05168
5.192864 -0.1609925 -2.056597
5.07983 -0.1543848 -2.054894
4.981833 -0.1516619 -2.052976
4.885157 -0.1555525 -2.060467
4.790105 -0.1487825 -2.053227
4.706193 -0.1431903 -2.05044
98.20008 -3.745807 -2.091875
73.65549 -2.827357 -2.077393
58.93958 -2.177059 -2.011802
49.12454 -1.888318 -2.04476
9.208649 -0.3404146 -0.4510938
8.993712 -0.3328469 -0.5008257
8.816694 -0.3400333 -0.5465651
8.671367 -0.3282808 -0.6133294
8.545271 -0.3256604 -0.6522086
8.441693 -0.3102888 -0.7178793
8.376458 -0.3240594 -0.7561826
8.339308 -0.3184468 -0.8158617
8.314277 -0.3103704 -0.8792983
8.277096 -0.3129754 -0.9371262
8.245609 -0.3067918 -0.9868106
8.216946 -0.3151466 -1.044843
8.188877 -0.3050025 -1.096862
8.149823 -0.3026772 -1.146726
8.131227 -0.2990798 -1.194407
8.120033 -0.3074021 -1.2642
8.101736 -0.3127571 -1.316528
8.098918 -0.2998465 -1.377267
8.065299 -0.3043524 -1.423992
8.077193 -0.3009879 -1.490419
8.08274 -0.3004229 -1.549288
8.095598 -0.2979655 -1.602908
8.103748 -0.3065128 -1.664367
8.097399 -0.3082692 -1.727148
8.108727 -0.301878 -1.792035
8.123927 -0.30192 -1.840247
8.115761 -0.3023046 -1.903637
8.131848 -0.2982979 -1.961658
8.243085 -0.3058479 -2.060276
8.007151 -0.3069986 -2.048208
7.769014 -0.2903405 -2.052277
7.559053 -0.2884029 -2.057798
7.354961 -0.2784003 -2.047916
7.158898 -0.2691445 -2.059918
6.983436 -0.2640566 -2.058885
6.809101 -0.2560854 -2.054746
6.633608 -0.2443212 -2.062473
6.470643 -0.2381677 -2.061461
6.320076 -0.2438065 -2.057868
6.181196 -0.2361978 -2.054095
6.034416 -0.2325997 -2.055064
5.904629 -0.2222816 -2.057809
5.767894 -0.2210075 -2.053533
5.645913 -0.2092352 -2.0548
5.522808 -0.2117988 -2.053901
5.41209 -0.20802 -2.060361
5.29111 -0.1986439 -2.05433
5.190011 -0.1968148 -2.058584
5.086776 -0.1968321 -2.052511
4.978304 -0.1825778 -2.054544
4.88516 -0.1836578 -2.057103
4.797328 -0.1765522 -2.057282
4.697285 -0.1792972 -2.052161
98.27591 -4.389325 -2.067069
73.66527 -3.296912 -1.995254
58.90686 -2.605301 -2.015735
49.07968 -2.18921 -2.078946
9.196116 -0.3994544 -0.4526248
8.985513 -0.3943828 -0.5029474
8.854512 -0.3889961 -0.5518541
8.701799 -0.3797989 -0.6082882
8.564062 -0.385625 -0.6675649
8.46956 -0.3675154 -0.7133165
8.418597 -0.3708118 -0.7650095
8.380274 -0.3688076 -0.8254882
8.3386 -0.3613336 -0.8733688
8.307038 -0.3673062 -0.9272571
8.287271 -0.3664056 -0.9918224
8.253534 -0.3622553 -1.049167
8.220031 -0.3698407 -1.101593
8.183191 -0.3661047 -1.147593
8.164836 -0.3641398 -1.213399
8.157915 -0.3622681 -1.258215
8.14123 -0.350395 -1.31935
8.117341 -0.3592022 -1.380941
8.117295 -0.3512495 -1.425139
8.127104 -0.3630429 -1.494161
8.127344 -0.3532239 -1.553226
8.135176 -0.3650721 -1.614031
8.148665 -0.3534869 -1.679487
8.156865 -0.3573489 -1.728821
8.155111 -0.3508158 -1.798462
8.16153 -0.3621553 -1.850085
8.166976 -0.3641626 -1.92397
8.188002 -0.355684 -1.97287
8.244067 -0.3610013 -2.059938
7.999401 -0.3571027 -2.047583
7.770681 -0.3473136 -2.049462
7.562063 -0.3378273 -2.052232
7.34879 -0.3305932 -2.061575
7.160264 -0.3220122 -2.056189
6.982948 -0.303971 -2.057006
6.800667 -0.2994455 -2.051858
6.635601 -0.2904626 -2.058061
6.476841 -0.2896813 -2.053757
6.321627 -0.2795512 -2.055861
6.174158 -0.2681599 -2.058542
6.037415 -0.2710636 -2.053665
5.892347 -0.2609257 -2.053169
5.770427 -0.256164 -2.059507
5.641715 -0.2527421 -2.049584
5.524415 -0.2488687 -2.055146
5.402217 -0.2350614 -2.054342
5.2998 -0.2346344 -2.060447
5.184364 -0.2243175 -2.050657
5.084325 -0.2194871 -2.054626
4.9782 -0.2215412 -2.054682
4.883703 -0.2187494 -2.05908
4.786455 -0.2126459 -2.059429
4.700756 -0.2068831 -2.057605
98.22251 -4.853564 -2.087175
73.62912 -3.674512 -2.066357
58.94024 -2.905639 -2.004202
9.479319 -0.4857676 -0.4060738
9.192164 -0.4537877 -0.4525489
9.026129 -0.4509861 -0.5063643
8.866098 -0.4383025 -0.5575467
8.73276 -0.4411606 -0.6123477
8.595709 -0.4251001 -0.6639866
8.506235 -0.4238065 -0.7236837
8.444911 -0.4332158 -0.76914
8.410152 -0.4292371 -0.8338156
8.383473 -0.429778 -0.8894582
8.354108 -0.4212894 -0.9450158
8.319308 -0.4159117 -0.9923928
8.291186 -0.4189233 -1.049212
8.258759 -0.4097686 -1.100616
8.22729 -0.4132797 -1.152309
8.199543 -0.4107987 -1.212684
8.195119 -0.418071 -1.277576
8.17369 -0.4154584 -1.32751
8.156859 -0.4174232 -1.375781
8.160251 -0.4164442 -1.447363
8.16965 -0.4146961 -1.496182
8.179502 -0.4048337 -1.555984
8.178736 -0.4166384 -1.617145
8.200403 -0.4065489 -1.685548
8.20747 -0.4102351 -1.739143
8.200863 -0.4129735 -1.800389
8.207129 -0.4097452 -1.868483
8.227983 -0.4051543 -1.931344
8.230999 -0.4217742 -1.987687
8.240432 -0.4208506 -2.054561
7.990501 -0.4079753 -2.058106
7.772895 -0.3952056 -2.047628
7.550862 -0.3797439 -2.052939
7.347987 -0.3690365 -2.061845
7.159729 -0.353571 -2.054323
6.977047 -0.3464743 -2.052161
6.792804 -0.337669 -2.059677
6.6299 -0.3290886 -2.054233
6.472977 -0.3256627 -2.059933
6.319616 -0.3157575 -2.050715
6.175008 -0.3073452 -2.055871
6.026529 -0.302437 -2.061756
5.892309 -0.2942297 -2.060058
5.768936 -0.2926156 -2.050403
5.642012 -0.2825216 -2.053133
5.521069 -0.2817255 -2.057014
5.402046 -0.2687973 -2.058489
5.287196 -0.2633815 -2.057845
5.181158 -0.2552742 -2.05989
5.076239 -0.2590328 -2.05889
4.976288 -0.2475148 -2.050665
4.882135 -0.2479967 -2.059694
4.791299 -0.2430612 -2.057353
4.697484 -0.2370029 -2.051163
98.10036 -5.641185 -1.993589
73.60691 -4.238118 -2.014668
58.84914 -3.345377 -2.040147
9.434339 -0.5324564 -0.4051528
9.211449 -0.5296624 -0.4508558
9.044125 -0.5151927 -0.5077381
8.895646 -0.4979063 -0.5613351
8.762523 -0.5002674 -0.6177551
8.614769 -0.4830342 -0.6702706
8.534563 -0.4812044 -0.7106708
8.498607 -0.4822479 -0.7679858
8.463304 -0.4869656 -0.8307254
8.426044 -0.4817674 -0.8802209
8.391752 -0.4715983 -0.9342953
8.350101 -0.4712895 -0.9972188
8.322722 -0.4739794 -1.046005
8.300684 -0.4655459 -1.102961
8.259321 -0.4670931 -1.160961
8.244634 -0.4596149 -1.222206
8.218366 -0.4575487 -1.28207
8.204746 -0.4653331 -1.324848
8.200909 -0.4656873 -1.393423
8.218038 -0.4667422 -1.454983
8.217007 -0.4585225 -1.518847
8.233863 -0.4575178 -1.576614
8.232302 -0.4633488 -1.634936
8.238109 -0.4591311 -1.686314
8.253933 -0.4666142 -1.750751
8.260406 -0.4692307 -1.815701
8.268354 -0.4699216 -1.874788
8.267707 -0.4671038 -1.945075
8.480343 -0.4881526 -2.050788
8.225016 -0.468453 -2.063536
7.999091 -0.4502906 -2.061458
7.768423 -0.433524 -2.053362
7.558972 -0.4299233 -2.051824
7.349675 -0.4221555 -2.061615
7.149752 -0.4025739 -2.050314
6.975298 -0.3902748 -2.058626
6.79067 -0.3846846 -2.061038
6.632739 -0.3798782 -2.056183
6.476192 -0.362741 -2.060602
6.315717 -0.3612335 -2.060169
6.170897 -0.3494251 -2.05963
6.02546 -0.3383775 -2.050051
5.896974 -0.3365717 -2.061103
5.762319 -0.3245478 -2.056233
5.636588 -0.3137271 -2.054283
5.519654 -0.3143231 -2.05412
5.407166 -0.3027954 -2.057008
5.291368 -0.303248 -2.056533
5.178373 -0.2930009 -2.052326
5.075327 -0.2913968 -2.053545
4.984533 -0.2862851 -2.055721
4.88589 -0.2792004 -2.050987
4.783103 -0.2665361 -2.058003
4.700342 -0.269164 -2.05223
92.86168 -5.848848 -1.913133
73.5359 -4.632344 -2.023771
58.84974 -3.698817 -2.059232
9.419948 -0.5930061 -0.3903693
9.224934 -0.5768138 -0.4596951
9.069321 -0.567157 -0.5021556
8.935491 -0.5609645 -0.5598327
8.785961 -0.54825 -0.6184959
8.659092 -0.5491304 -0.6669772
8.575788 -0.536141 -0.726754
8.534536 -0.543429 -0.7707559
8.498206 -0.5391154 -0.8404168
8.464569 -0.5374572 -0.8864805
8.424498 -0.5330641 -0.9448345
8.397844 -0.5257396 -1.003746
8.359079 -0.5286505 -1.051028
8.321563 -0.5227394 -1.111944
8.294677 -0.521031 -1.162431
8.282983 -0.5238413 -1.218219
8.266926 -0.5141842 -1.274638
8.261477 -0.5177051 -1.333223
8.259058 -0.5143406 -1.403286
8.260554 -0.5148109 -1.462231
8.274981 -0.512136 -1.518875
8.284326 -0.5252682 -1.585062
8.278143 -0.5276456 -1.645574
8.294205 -0.5164517 -1.707206
8.291231 -0.5184034 -1.760631
8.310166 -0.5238593 -1.82564
8.308553 -0.5229391 -1.890261
8.753115 -0.5457459 -2.060525
8.479156 -0.529545 -2.063839
8.233018 -0.5173844 -2.04964
7.99248 -0.5030747 -2.053455
7.758142 -0.4808228 -2.058166
7.556173 -0.4750232 -2.05617
7.352704 -0.4686781 -2.059431
7.153494 -0.4462355 -2.058949
6.964448 -0.4345694 -2.062039
6.798319 -0.421998 -2.049714
6.625845 -0.4159932 -2.057256
6.464388 -0.4046031 -2.05145
6.308457 -0.3941704 -2.051427
6.164777 -0.3877878 -2.057679
6.02726 -0.3825791 -2.059768
5.887971 -0.3710994 -2.06097
5.763118 -0.3604361 -2.051399
5.635466 -0.3549497 -2.050117
5.51862 -0.343984 -2.052135
5.394928 -0.3424292 -2.056541
5.292421 -0.3309792 -2.058585
5.184581 -0.3262905 -2.054743
5.08058 -0.3209414 -2.053636
4.978908 -0.3106543 -2.056887
4.88271 -0.3054103 -2.059921
4.787843 -0.300809 -2.055857
4.7002 -0.2914507 -2.053741
92.90081 -6.380915 -1.913553
73.58356 -5.067824 -2.017259
58.90052 -4.031809 -2.053675
9.427737 -0.6448605 -0.3885933
9.263557 -0.633023 -0.4574655
9.099225 -0.6315811 -0.5035653
8.956338 -0.6258253 -0.5661916
8.819962 -0.6123409 -0.6111901
8.691922 -0.6037445 -0.6624606
8.613545 -0.6029914 -0.7308582
8.572714 -0.5881647 -0.7828835
8.534865 -0.5852079 -0.841383
8.504462 -0.5934443 -0.8923734
8.469741 -0.5863549 -0.9433529
8.434452 -0.5864264 -1.006911
8.393492 -0.5821949 -1.056888
8.358774 -0.5802189 -1.121429
8.336137 -0.5800872 -1.176862
8.314852 -0.5681124 -1.236926
8.304979 -0.5691497 -1.28597
8.299185 -0.5662335 -1.352898
8.297919 -0.5811363 -1.403549
8.319659 -0.5699409 -1.472467
8.314444 -0.5748157 -1.538918
8.323236 -0.581876 -1.597473
8.339008 -0.5718716 -1.660206
8.347055 -0.5697111 -1.709568
8.353176 -0.5845063 -1.775267
8.362945 -0.5824078 -1.844739
8.447074 -0.5869544 -1.926297
8.7481 -0.6044298 -2.054245
8.477824 -0.5904995 -2.062624
8.224751 -0.5632027 -2.055182
7.986341 -0.5549358 -2.053054
7.7571 -0.5358256 -2.060394
7.544363 -0.5292431 -2.050735
7.34536 -0.5028063 -2.052158
7.153318 -0.4925647 -2.05594
6.969412 -0.4859343 -2.055356
6.786779 -0.4677882 -2.062077
6.618836 -0.4598065 -2.057368
6.460156 -0.4527768 -2.051892
6.312979 -0.4362771 -2.051482
6.162903 -0.4217798 -2.052127
6.020658 -0.4141802 -2.057793
5.887795 -0.4066877 -2.050725
5.763137 -0.3952686 -2.050491
5.63018 -0.3843823 -2.056493
5.517472 -0.3810164 -2.061143
5.399756 -0.378488 -2.055972
5.288446 -0.3713128 -2.051575
5.177737 -0.3560813 -2.058412
5.077811 -0.3492266 -2.050738
4.974713 -0.3483931 -2.054627
4.882758 -0.3382588 -2.05904
4.788175 -0.3336034 -2.052846
4.692621 -0.3198744 -2.054487
92.8083 -7.091792 -1.986275
73.47801 -5.538277 -2.093477
58.78982 -4.422046 -2.059322
9.445509 -0.7143558 -0.388499
9.29541 -0.7065893 -0.4554389
9.14016 -0.6952867 -0.514448
8.985033 -0.6708386 -0.5740743
8.833216 -0.6597661 -0.6145256
8.719969 -0.6618915 -0.6693365
8.65019 -0.6532521 -0.7323946
8.603682 -0.6578524 -0.7816499
8.569792 -0.6472228 -0.8453494
8.545611 -0.637144 -0.908335
8.502675 -0.6454553 -0.9557694
8.474591 -0.6426624 -1.012722
8.431994 -0.6376649 -1.066028
8.407736 -0.629445 -1.11933
8.372823 -0.6313267 -1.177058
8.360162 -0.6268736 -1.243892
8.348363 -0.6379082 -1.296214
8.337744 -0.6383708 -1.352681
8.354962 -0.6226264 -1.418557
8.364119 -0.6375505 -1.486926
8.375248 -0.6335217 -1.543395
8.391867 -0.6352062 -1.6015
8.392422 -0.638072 -1.668212
8.423577 -0.6406065 -1.73238
8.434281 -0.6453042 -1.79513
8.466673 -0.6450402 -1.865185
9.020248 -0.6822892 -2.053048
8.73795 -0.6573416 -2.05808
8.467883 -0.6337459 -2.054528
8.228517 -0.6274457 -2.052433
7.985425 -0.5993077 -2.049706
7.7601 -0.5923993 -2.058821
7.547339 -0.5766402 -2.061424
7.34798 -0.5542181 -2.054219
7.143687 -0.5331575 -2.058022
6.963955 -0.519366 -2.048932
6.783837 -0.5167637 -2.057764
6.614975 -0.5028784 -2.049982
6.463413 -0.490399 -2.061064
6.309011 -0.473445 -2.054572
6.162542 -0.4603126 -2.058707
6.018722 -0.4504384 -2.054973
5.884592 -0.4401988 -2.060045
5.7601 -0.4321961 -2.057122
5.630019 -0.4280535 -2.056505
5.512986 -0.4216996 -2.055587
5.395169 -0.4095998 -2.057459
5.280224 -0.3985299 -2.060301
5.180272 -0.3897437 -2.05279
5.076971 -0.3885439 -2.055475
4.969421 -0.3743689 -2.056094
4.871452 -0.3732269 -2.051708
4.777248 -0.3650583 -2.051902
4.696028 -0.3512906 -2.060169
92.8046 -7.676733 -1.92751
70.17613 -5.77538 -1.927641
58.78209 -4.79204 -2.002011
9.488643 -0.7674006 -0.3984961
9.322466 -0.7604424 -0.4567105
9.165258 -0.7545537 -0.5193139
9.022709 -0.7454927 -0.5756496
8.866713 -0.7276613 -0.622539
8.761964 -0.7236603 -0.676096
8.698286 -0.7206169 -0.7276624
8.656923 -0.7161037 -0.7878784
8.617069 -0.7102038 -0.8430804
8.585588 -0.6940499 -0.9058364
8.539502 -0.7058674 -0.9668964
8.503071 -0.7049936 -1.018457
8.471361 -0.685985 -1.073897
8.434422 -0.6837326 -1.137249
8.415016 -0.6818768 -1.179012
8.399197 -0.6887331 -1.241626
8.395137 -0.6824639 -1.308928
8.389846 -0.6785769 -1.35521
8.397082 -0.6798298 -1.430049
8.409648 -0.6844252 -1.493322
8.425184 -0.6836442 -1.55965
8.43847 -0.6965631 -1.614343
8.461928 -0.6891435 -1.685104
8.474718 -0.692058 -1.747826
8.501852 -0.6881341 -1.813917
8.517083 -0.7029041 -1.884266
9.008718 -0.7384973 -2.063276
8.73272 -0.7180739 -2.058768
8.473864 -0.6903814 -2.060762
8.212002 -0.6805097 -2.05051
7.979245 -0.6589306 -2.058964
7.755889 -0.6330702 -2.053054
7.53549 -0.618595 -2.04806
7.33845 -0.5966206 -2.053776
7.147408 -0.586742 -2.053482
6.95894 -0.5730947 -2.061254
6.780531 -0.5540933 -2.060339
6.615844 -0.5455304 -2.055102
6.451756 -0.5290674 -2.061204
6.305436 -0.514016 -2.052112
6.163589 -0.5097812 -2.06133
6.018482 -0.4950563 -2.061401
5.885253 -0.4786576 -2.051929
5.75245 -0.4649377 -2.059247
5.627262 -0.4605696 -2.058242
5.506509 -0.447381 -2.051169
5.390873 -0.4467872 -2.057549
5.28092 -0.4371738 -2.057375
5.172512 -0.4246589 -2.057605
5.067086 -0.4177146 -2.060624
4.975601 -0.4104919 -2.052351
4.872805 -0.3981653 -2.059537
4.774938 -0.3960605 -2.053742
4.690993 -0.3819756 -2.053776
92.6775 -8.149606 -1.890248
69.59929 -6.066561 -1.89427
58.77102 -5.125945 -2.094787
9.533746 -0.837765 -0.3933377
9.357843 -0.8200848 -0.4615742
9.217556 -0.8090848 -0.5238469
9.057015 -0.7910581 -0.5769721
8.904857 -0.7948617 -0.6328779
8.818796 -0.7791213 -0.6808037
8.748169 -0.7754006 -0.7291244
8.685914 -0.774689 -0.7855716
8.656264 -0.7627578 -0.8516444
8.623504 -0.7583178 -0.9104144
8.578474 -0.7619051 -0.9727937
8.557381 -0.7508497 -1.027934
8.5153 -0.7531531 -1.079858
8.487753 -0.749174 -1.131485
8.445829 -0.7467213 -1.199452
8.442758 -0.7523764 -1.259232
8.438675 -0.7454628 -1.316192
8.439474 -0.7466318 -1.369346
8.446575 -0.7475521 -1.434189
8.462907 -0.7397738 -1.496447
8.480619 -0.7527695 -1.557654
8.494629 -0.7543397 -1.62775
8.516707 -0.7451946 -1.695709
8.522799 -0.7520115 -1.764423
8.558958 -0.7599979 -1.828616
8.576131 -0.748887 -1.886004
9.014202 -0.8009686 -2.063563
8.722766 -0.7762197 -2.060775
8.471716 -0.7416713 -2.059914
8.215637 -0.7279115 -2.054198
7.969207 -0.7007744 -2.049776
7.746733 -0.6823616 -2.051344
7.534922 -0.6645024 -2.049845
7.334734 -0.6474457 -2.055187
7.13632 -0.6288061 -2.060003
6.959294 -0.6152201 -2.055588
6.788082 -0.5918562 -2.057782
6.621213 -0.5793961 -2.062366
6.453959 -0.5756848 -2.055726
6.308081 -0.5560322 -2.054563
6.151402 -0.5383191 -2.050221
6.01567 -0.5331401 -2.052933
5.877576 -0.5170127 -2.0613
5.752755 -0.5090356 -2.053941
5.624074 -0.4966811 -2.053982
5.508076 -0.4866805 -2.061376
5.389657 -0.4716912 -2.051215
5.275958 -0.4665798 -2.054418
5.174208 -0.4606781 -2.056415
5.072402 -0.4501763 -2.057231
4.971297 -0.4329235 -2.052004
4.870189 -0.4308541 -2.056214
4.7775 -0.4226341 -2.05075
4.683556 -0.4160909 -2.052573
92.69076 -8.830441 -1.866902
69.45236 -6.610212 -1.936171
58.74958 -5.522483 -2.065357
9.583235 -0.9084012 -0.4077462
9.413136 -0.8819538 -0.4542051
9.253192 -0.8726341 -0.5218345
9.094381 -0.8597586 -0.5789768
8.94925 -0.8550827 -0.6232355
8.861967 -0.8281645 -0.6888791
8.78472 -0.8348567 -0.7435738
8.730435 -0.8181646 -0.8052498
8.695926 -0.8247633 -0.8578319
8.656359 -0.8107294 -0.9228781
8.633394 -0.8169335 -0.9689929
8.588923 -0.8176853 -1.027581
8.560962 -0.8007823 -1.081497
8.52362 -0.8133007 -1.146946
8.478313 -0.8082896 -1.205435
8.475388 -0.8016835 -1.253527
8.478889 -0.7960153 -1.316659
8.496573 -0.8029886 -1.38899
8.496568 -0.7999368 -1.443193
8.52006 -0.8001733 -1.50652
8.530939 -0.8147095 -1.576746
8.553966 -0.8052045 -1.644662
8.564734 -0.8183866 -1.697464
8.581293 -0.8044097 -1.778296
8.600198 -0.8195668 -1.837845
8.630868 -0.8183057 -1.906713
8.999945 -0.8597207 -2.051683
8.726739 -0.8178254 -2.049115
8.464295 -0.7924567 -2.047075
8.209774 -0.7792034 -2.051491
7.963111 -0.7519342 -2.048839
7.73877 -0.732558 -2.062673
7.535446 -0.718382 -2.057214
7.325274 -0.698228 -2.048402
7.132854 -0.6740837 -2.060712
6.953899 -0.6533898 -2.055879
6.773947 -0.644422 -2.062384
6.610751 -0.6240329 -2.052646
6.444925 -0.6102828 -2.054435
6.293453 -0.6010137 -2.060476
6.148211 -0.5825489 -2.057208
6.017289 -0.5683344 -2.054899
5.874964 -0.5534106 -2.049579
5.740956 -0.5445929 -2.050911
5.621059 -0.5335176 -2.050587
5.505987 -0.51831 -2.059556
5.387609 -0.5112373 -2.056757
5.276114 -0.4993964 -2.060538
5.173048 -0.4862924 -2.052458
5.069894 -0.4783731 -2.058099
4.969966 -0.4708166 -2.052223
4.866985 -0.458796 -2.052872
4.771038 -0.4517016 -2.05935
4.681427 -0.4474924 -2.052352
92.68324 -9.255996 -2.003353
69.40788 -6.982008 -2.011276
56.86349 -5.792031 -2.052065
48.89162 -4.943083 -2.039688
9.473669 -0.9506333 -0.4624619
9.293898 -0.9473764 -0.5171536
9.149839 -0.9225906 -0.5788066
8.994891 -0.9004855 -0.6412284
8.90256 -0.9010124 -0.6820592
8.837566 -0.8840151 -0.7443725
8.772519 -0.8901837 -0.7989969
8.7423 -0.8895267 -0.8552307
8.704142 -0.8822101 -0.9260308
8.670757 -0.8711515 -0.9766263
8.627681 -0.8656417 -1.029127
8.601792 -0.8658253 -1.088272
8.563207 -0.855897 -1.144505
8.533948 -0.8591032 -1.213264
8.538733 -0.868359 -1.259575
8.533728 -0.8667815 -1.32462
8.541826 -0.8590172 -1.395958
8.549896 -0.8572555 -1.461098
8.562435 -0.8580518 -1.516759
8.589798 -0.8637504 -1.579545
8.599615 -0.8625754 -1.643374
8.613269 -0.8703154 -1.722512
8.64419 -0.8774761 -1.775283
8.655786 -0.8789778 -1.849445
8.69768 -0.8816099 -1.916762
9.003381 -0.9087584 -2.049774
8.718031 -0.8729275 -2.049333
8.460291 -0.8578141 -2.051434
8.206124 -0.8344814 -2.058266
7.958693 -0.8029284 -2.049482
7.73581 -0.7764503 -2.056719
7.532824 -0.7537202 -2.053789
7.317362 -0.740077 -2.056787
7.134006 -0.7259887 -2.061645
6.943192 -0.7026576 -2.058518
6.767119 -0.686147 -2.055276
6.610414 -0.671241 -2.053065
6.451786 -0.6493506 -2.049893
6.30085 -0.6411475 -2.050077
6.142315 -0.6253644 -2.060049
6.012861 -0.6105816 -2.06075
5.867832 -0.5875221 -2.049776
5.743173 -0.5739933 -2.056086
5.618569 -0.56761 -2.050502
5.495277 -0.5488094 -2.050942
5.387442 -0.5412733 -2.059182
5.278059 -0.5325474 -2.058352
5.160621 -0.5242803 -2.058176
5.063229 -0.5105894 -2.055609
4.957255 -0.5007066 -2.058674
4.865858 -0.4870899 -2.056745
4.769649 -0.4794527 -2.05995
4.676955 -0.4734132 -2.059898
92.52573 -9.885798 -1.917583
69.46615 -7.499054 -1.89519
55.51054 -5.915915 -1.971856
48.83754 -5.247279 -2.016824
9.532772 -1.028158 -0.4621442
9.356918 -1.010764 -0.5267608
9.190735 -0.9789292 -0.5793559
9.034348 -0.9689816 -0.6360788
8.945125 -0.9567893 -0.6991208
8.887866 -0.9557964 -0.7556469
8.815909 -0.9483364 -0.8003821
8.781531 -0.9412294 -0.8731045
8.745144 -0.9303648 -0.9236729
8.717826 -0.9337579 -0.9791056
8.683694 -0.9318617 -1.038875
8.642568 -0.9181441 -1.095641
8.59905 -0.9199329 -1.157024
8.576046 -0.9287782 -1.218649
8.583229 -0.9210843 -1.275664
8.574619 -0.9179707 -1.337425
8.601974 -0.9254282 -1.402566
8.606264 -0.9237542 -1.456657
8.615305 -0.92826 -1.531552
8.636176 -0.9259707 -1.601258
8.66627 -0.9369397 -1.655167
8.68638 -0.9305201 -1.723638
8.695436 -0.9349045 -1.791337
8.720059 -0.9266115 -1.872792
8.759842 -0.9469446 -1.929777
9.000173 -0.9618517 -2.061827
8.710425 -0.926669 -2.055608
8.4469 -0.9136904 -2.054211
8.205857 -0.872461 -2.056758
7.964971 -0.8470227 -2.050314
7.742572 -0.8217573 -2.053009
7.530014 -0.8117805 -2.051757
7.327772 -0.777236 -2.058338
7.133986 -0.7675917 -2.051623
6.938405 -0.7477461 -2.057598
6.763863 -0.7239479 -2.054893
6.607697 -0.7018623 -2.050584
6.447759 -0.6875116 -2.049519
6.288202 -0.6727778 -2.058908
6.140426 -0.6571426 -2.055144
6.005804 -0.6399269 -2.053296
5.872344 -0.6258382 -2.052121
5.739455 -0.6160178 -2.052939
5.617445 -0.5982891 -2.055931
5.492894 -0.588735 -2.059711
5.37733 -0.5782595 -2.06084
5.268634 -0.5604774 -2.057276
5.158788 -0.5527878 -2.055232
5.060371 -0.5461655 -2.06017
4.957374 -0.5281564 -2.050741
4.864286 -0.5258796 -2.053313
4.773475 -0.5093987 -2.05974
4.675193 -0.5040185 -2.050561
92.58501 -10.50819 -1.863343
69.42731 -7.935004 -1.915071
55.50504 -6.354334 -1.997154
48.79808 -5.533854 -2.095522
9.746285 -1.10024 -0.471335
9.415513 -1.068902 -0.5360634
9.240457 -1.050196 -0.5931336
9.087522 -1.031962 -0.6396913
8.990143 -1.015007 -0.6926874
8.939035 -1.007516 -0.746188
8.879416 -1.013141 -0.8116412
8.821653 -1.008187 -0.8800696
8.796076 -1.003312 -0.9370574
8.756004 -0.9939102 -0.9798203
8.723312 -0.9815584 -1.045312
8.685757 -0.9898379 -1.107494
8.645174 -0.9805337 -1.157103
8.621274 -0.986783 -1.216788
8.629285 -0.9786766 -1.282764
8.641562 -0.9866017 -1.338425
8.644918 -0.9832268 -1.41549
8.660285 -0.9829736 -1.471125
8.674601 -0.9812689 -1.54727
8.699299 -0.9829751 -1.602967
8.717042 -0.9865365 -1.670213
8.744799 -0.9945779 -1.747519
8.763994 -0.9921444 -1.811455
8.771415 -0.9897991 -1.869388
8.83232 -1.001016 -1.952325
8.996428 -1.016513 -2.055132
8.716761 -0.9814919 -2.053576
8.44399 -0.9591155 -2.061407
8.198391 -0.9295951 -2.050574
7.96236 -0.9097117 -2.057286
7.731065 -0.8721142 -2.063371
7.522328 -0.8477051 -2.062957
7.316527 -0.8372298 -2.055374
7.115315 -0.8049629 -2.049253
6.945426 -0.7896528 -2.052995
6.761306 -0.7637511 -2.055837
6.596404 -0.746709 -2.048912
6.433308 -0.7287573 -2.057422
6.284946 -0.7174184 -2.049552
6.144647 -0.6947672 -2.052227
5.99556 -0.6814705 -2.061631
5.858793 -0.6652621 -2.057678
5.735847 -0.6464682 -2.052707
5.608282 -0.6397954 -2.060017
5.487988 -0.6290305 -2.061342
5.378083 -0.6108408 -2.057814
5.266127 -0.5945632 -2.058401
5.157131 -0.5851924 -2.060779
5.056735 -0.5767208 -2.050622
4.952208 -0.567185 -2.060519
4.859104 -0.552179 -2.052838
4.765038 -0.540898 -2.051689
4.670725 -0.5335755 -2.050575
92.44795 -11.09793 -1.883705
69.38909 -8.354557 -1.941223
55.39954 -6.616234 -1.971432
47.81451 -5.73008 -2.056872
41.69545 -4.96645 -2.07975
9.489682 -1.13989 -0.5328912
9.300142 -1.11208 -0.5937635
9.12844 -1.103631 -0.6404868
9.039478 -1.08005 -0.6981649
8.985863 -1.081261 -0.7520172
8.923425 -1.075251 -0.8200069
8.868276 -1.057165 -0.8827584
8.839072 -1.05945 -0.941012
8.806584 -1.047136 -0.9967045
8.763979 -1.052734 -1.047096
8.723447 -1.051553 -1.108115
8.690517 -1.036721 -1.174163
8.676973 -1.048674 -1.23554
8.673821 -1.037971 -1.282642
8.686228 -1.048789 -1.349248
8.70092 -1.039427 -1.410851
8.715165 -1.050285 -1.484487
8.733034 -1.051138 -1.549068
8.751885 -1.049255 -1.614469
8.782368 -1.054803 -1.686221
8.787838 -1.060905 -1.756083
8.815535 -1.053847 -1.820647
8.845062 -1.052355 -1.889446
9.285403 -1.110286 -2.059686
8.978732 -1.076663 -2.059145
8.694441 -1.035163 -2.050577
8.439662 -1.020128 -2.05641
8.191978 -0.9793606 -2.051736
7.954988 -0.9525239 -2.057882
7.716558 -0.9242421 -2.063578
7.506985 -0.8981269 -2.056192
7.311491 -0.8818234 -2.056226
7.123426 -0.8502645 -2.057842
6.940794 -0.8259857 -2.052554
6.753945 -0.8141611 -2.054897
6.595312 -0.7940173 -2.059305
6.440415 -0.767603 -2.058307
6.280767 -0.7565853 -2.056598
6.135239 -0.7365094 -2.051511
5.998253 -0.713716 -2.05917
5.860056 -0.7074855 -2.060999
5.728867 -0.6854807 -2.058203
5.610741 -0.6686642 -2.059706
5.485621 -0.662488 -2.060009
5.375984 -0.6394222 -2.054209
5.260219 -0.6275628 -2.051565
5.149292 -0.6208369 -2.050291
5.052149 -0.6040717 -2.052311
4.956123 -0.5954903 -2.056401
4.854091 -0.5850617 -2.051209
4.759937 -0.5680657 -2.051351
4.670574 -0.5619051 -2.057421

