ply
format ascii 1.0
element vertex 1097
property float x
property float y
property float z
end_header
98.25828 -0.5257974 -2.032085
73.751 -0.4326994 -2.014708
59.04586 -0.3448385 -2.035914
49.04361 -0.3496574 -2.057319
42.00946 -0.2642041 -2.015982
36.78038 -0.235449 -2.024819
32.6484 -0.2266245 -2.073961
29.39067 -0.1733172 -2.029673
26.73277 -0.1928827 -2.073393
24.47833 -0.1361781 -2.034187
22.57233 -0.1574262 -2.060791
20.95349 -0.1402543 -2.074335
19.55617 -0.1406632 -2.05043
18.33973 -0.1185744 -2.042103
17.25492 -0.1096405 -2.062608
16.2813 -0.0977998 -2.059283
15.40294 -0.1023273 -2.051434
14.61388 -0.07991759 -2.04786
13.93251 -0.0903413 -2.062248
13.28794 -0.08280163 -2.047526
12.67964 -0.06733933 -2.054873
12.15671 -0.07455715 -2.04986
11.64915 -0.06665903 -2.043763
11.1985 -0.07045614 -2.056889
10.76767 -0.05838803 -2.051298
10.37516 -0.05649579 -2.057404
10.02177 -0.05992438 -2.065477
9.676284 -0.05477801 -2.056379
9.35597 -0.05378234 -2.056411
9.048214 -0.05373706 -2.053673
8.760933 -0.05079817 -2.051919
8.501102 -0.05844732 -2.056981
8.248635 -0.0551268 -2.057879
8.003708 -0.05053461 -2.057684
7.780771 -0.05003884 -2.061649
7.566532 -0.05222311 -2.063002
7.361309 -0.04996283 -2.06278
7.171662 -0.04428873 -2.062399
6.978631 -0.04482073 -2.055951
6.802711 -0.04369151 -2.060664
6.638762 -0.04429708 -2.057066
6.473407 -0.04334609 -2.059885
6.320921 -0.03636297 -2.060786
6.175517 -0.04365001 -2.05956
6.041947 -0.03377583 -2.053422
5.906825 -0.03433216 -2.056695
5.77265 -0.03835083 -2.0495
5.641668 -0.04005316 -2.051688
5.528304 -0.04052966 -2.058385
5.411231 -0.03876495 -2.050539
5.304112 -0.03447011 -2.060689
5.19276 -0.03296116 -2.059131
5.089483 -0.03404654 -2.057073
4.984772 -0.0344011 -2.054558
4.891897 -0.03152275 -2.056175
4.796892 -0.02626054 -2.056554
4.703989 -0.02844616 -2.050428
98.42595 -1.167679 -2.006804
73.73988 -0.9717025 -2.084419
58.97963 -0.7318006 -2.00755
49.00924 -0.5992841 -2.091137
41.99496 -0.5168001 -2.078995
36.77824 -0.4412204 -2.025223
32.66641 -0.435929 -2.05328
29.41302 -0.3461698 -2.033604
26.69374 -0.3147464 -2.029637
24.4711 -0.3119042 -2.034741
22.60437 -0.3030644 -2.036338
20.94709 -0.2798272 -2.067071
19.53723 -0.247338 -2.064841
18.30767 -0.2176697 -2.065106
17.24697 -0.2317441 -2.038192
16.27852 -0.1978125 -2.061385
15.40679 -0.1908566 -2.041288
14.62778 -0.1939232 -2.057411
13.9118 -0.1869025 -2.051869
13.28564 -0.1637235 -2.057534
12.67823 -0.1591538 -2.060315
12.16156 -0.1627727 -2.044369
11.65337 -0.1479916 -2.066995
11.19122 -0.1313042 -2.056126
10.77263 -0.1371727 -2.056307
10.38121 -0.1277797 -2.065366
10.0117 -0.1188598 -2.055503
9.672336 -0.1204657 -2.056711
9.352557 -0.1134646 -2.050899
9.038338 -0.1223882 -2.052261
8.767612 -0.1118873 -2.053406
8.503741 -0.1103501 -2.062966
8.237257 -0.11018 -2.061658
8.006689 -0.1059519 -2.056616
7.772996 -0.09201421 -2.048654
7.569485 -0.08854333 -2.054808
7.362241 -0.09382081 -2.057733
7.175312 -0.09721389 -2.056566
6.977237 -0.08214397 -2.055268
6.807579 -0.08143909 -2.053756
6.636519 -0.08703656 -2.057886
6.482896 -0.07816353 -2.054569
6.324693 -0.0748383 -2.053433
6.177311 -0.08077739 -2.056933
6.035739 -0.07468145 -2.054824
5.907131 -0.07508424 -2.060441
5.766935 -0.06691072 -2.05328
5.649881 -0.0698647 -2.04981
5.522048 -0.07483137 -2.04976
5.415202 -0.07091796 -2.052356
5.30213 -0.0614429 -2.053051
5.195156 -0.06786913 -2.05907
5.091353 -0.05944234 -2.053972
4.98871 -0.05882428 -2.051591
4.894836 -0.05727629 -2.056948
4.791821 -0.05815514 -2.059383
4.70734 -0.06213106 -2.055289
98.24891 -1.89644 -2.121924
73.72419 -1.345549 -2.111089
58.98705 -1.164815 -2.064938
49.06432 -0.9332075 -2.072942
42.01567 -0.774958 -2.021802
36.73629 -0.6719899 -2.037248
32.66913 -0.6134405 -2.025757
29.3991 -0.5787018 -2.040139
26.70811 -0.5034893 -2.074863
24.49459 -0.4501876 -2.056548
22.59363 -0.424684 -2.061059
20.95295 -0.3835962 -2.061014
19.56322 -0.3802891 -2.061804
18.31457 -0.3584559 -2.044306
17.22476 -0.3337595 -2.044821
16.2691 -0.3110386 -2.044988
15.41572 -0.2840073 -2.065238
14.63194 -0.2839735 -2.054488
13.91251 -0.2638189 -2.067149
13.26818 -0.2487023 -2.060496
12.68347 -0.248734 -2.047373
12.16122 -0.2404728 -2.067561
11.64374 -0.2309982 -2.058042
11.1875 -0.2000271 -2.044596
10.77381 -0.2140202 -2.06484
10.37805 -0.185907 -2.05476
10.01819 -0.1986153 -2.046877
9.660454 -0.1767631 -2.054038
9.341405 -0.1829805 -2.056751
9.037796 -0.1784904 -2.064218
8.763666 -0.1681942 -2.062557
8.499727 -0.1661586 -2.061141
8.248086 -0.1599033 -2.06023
7.999205 -0.1493818 -2.059525
7.781825 -0.1420181 -2.050764
7.566211 -0.1389028 -2.051573
7.359929 -0.1326102 -2.05044
7.164864 -0.1423758 -2.052759
6.982026 -0.1352991 -2.052763
6.803955 -0.1327357 -2.058638
6.637005 -0.1246895 -2.06039
6.474908 -0.128833 -2.055892
6.330373 -0.1165522 -2.055446
6.174988 -0.1180228 -2.051358
6.031553 -0.112419 -2.055719
5.906626 -0.1136048 -2.05998
5.774238 -0.1045357 -2.058757
5.65099 -0.104534 -2.050783
5.523245 -0.1096135 -2.051533
5.410991 -0.0972043 -2.056046
5.296832 -0.1006237 -2.052955
5.18579 -0.1028277 -2.053298
5.085229 -0.1009747 -2.05151
4.990319 -0.09870572 -2.052247
4.889024 -0.08951651 -2.056063
4.799553 -0.08629434 -2.051863
4.702256 -0.09249257 -2.054765
88.50948 -2.300197 -1.216209
88.42928 -2.236914 -1.774057
73.76147 -1.784844 -2.126463
58.9893 -1.52868 -2.092936
49.01341 -1.226743 -2.014465
42.03225 -1.020494 -2.087772
36.75079 -0.9579455 -2.091902
32.66911 -0.849766 -2.043956
29.41298 -0.7170008 -2.060927
26.68556 -0.6590442 -2.033643
24.49416 -0.6011018 -2.047387
22.59576 -0.5763555 -2.046003
20.9534 -0.5226138 -2.049754
19.56404 -0.4858499 -2.056893
18.32463 -0.4705052 -2.043576
17.24747 -0.4332052 -2.06064
16.25413 -0.4059468 -2.055721
15.41181 -0.374775 -2.058837
14.62996 -0.3617007 -2.055835
13.91063 -0.3389216 -2.049532
13.27191 -0.3242658 -2.045514
12.67711 -0.3070989 -2.044017
12.14033 -0.3118341 -2.051563
11.66009 -0.3003301 -2.063369
11.20693 -0.2882124 -2.061867
10.77529 -0.2803644 -2.053948
10.37533 -0.2613414 -2.053449
10.00375 -0.2415555 -2.059343
9.668442 -0.2356305 -2.046188
9.338851 -0.2338351 -2.059064
9.051926 -0.2262033 -2.050858
8.770046 -0.2123852 -2.057361
8.499679 -0.2087711 -2.059883
8.244045 -0.2010416 -2.058562
7.997336 -0.1940566 -2.057906
7.7748 -0.1919214 -2.050218
7.568099 -0.1977703 -2.04774
7.358355 -0.1896423 -2.055164
7.162756 -0.184173 -2.054175
6.97529 -0.1705666 -2.059176
6.813016 -0.1688707 -2.050524
6.643441 -0.1658949 -2.054988
6.482383 -0.165921 -2.059361
6.32594 -0.1555826 -2.053976
6.175842 -0.1505958 -2.051847
6.032487 -0.1465948 -2.06131
5.905926 -0.1501053 -2.060232
5.770181 -0.1398515 -2.058037
5.64265 -0.1397595 -2.05245
5.520205 -0.1422482 -2.052731
5.410192 -0.1378057 -2.056459
5.298623 -0.1280099 -2.050354
5.188632 -0.1264954 -2.05346
5.08949 -0.1320816 -2.051826
4.980984 -0.1245061 -2.054847
4.888432 -0.126828 -2.050769
4.796032 -0.1242251 -2.052469
4.705931 -0.1183368 -2.051243
88.30706 -2.709786 -0.6830631
71.17283 -2.233303 -0.9483989
70.81251 -2.220128 -1.542005
71.28817 -2.204119 -2.023096
58.99878 -1.889053 -2.070245
49.04293 -1.517319 -2.050527
42.03405 -1.348779 -2.051414
36.71653 -1.136092 -2.069828
32.63895 -0.9975054 -2.041307
29.39063 -0.914376 -2.059525
26.713 -0.8191919 -2.077217
24.44517 -0.769436 -2.076912
22.58339 -0.6934389 -2.046276
20.96037 -0.6406161 -2.071902
19.53976 -0.6139903 -2.054973
18.32951 -0.5652783 -2.050523
17.24396 -0.5441328 -2.058802
16.25525 -0.5111445 -2.048351
15.38489 -0.4899178 -2.066449
14.62078 -0.4497721 -2.070213
13.90824 -0.4236266 -2.042502
13.27092 -0.4059731 -2.057604
12.67479 -0.4031488 -2.065513
12.1451 -0.3869675 -2.062231
11.64436 -0.3589334 -2.048641
11.19367 -0.3547429 -2.05171
10.77898 -0.3370225 -2.049885
10.38482 -0.3347021 -2.058166
10.01614 -0.3139662 -2.057453
9.656617 -0.3108897 -2.06339
9.340815 -0.3012798 -2.064242
9.042386 -0.2851835 -2.062432
8.76399 -0.2776652 -2.047769
8.494977 -0.2663191 -2.051201
8.241784 -0.2595441 -2.054875
8.009366 -0.2466516 -2.053703
7.778274 -0.2452154 -2.055736
7.567396 -0.2450511 -2.057951
7.358017 -0.2238983 -2.051421
7.157638 -0.2314098 -2.04961
6.97398 -0.219301 -2.06127
6.797904 -0.2171683 -2.049453
6.631569 -0.2146161 -2.05646
6.483482 -0.2006783 -2.053449
6.327918 -0.1996788 -2.052503
6.173005 -0.1905068 -2.061883
6.034717 -0.1913588 -2.052989
5.900043 -0.1794264 -2.053322
5.768267 -0.1859599 -2.060187
5.647952 -0.1821116 -2.059983
5.522873 -0.1722704 -2.050727
5.410789 -0.1708438 -2.052657
5.298156 -0.1674311 -2.059481
5.189864 -0.1636814 -2.057364
5.081409 -0.1605448 -2.055049
4.980377 -0.1539592 -2.051836
4.889309 -0.1539227 -2.058858
4.793975 -0.1544496 -2.05705
4.699759 -0.1429823 -2.052431
72.00549 -2.657482 -0.5672252
70.736 -2.623663 -0.9341272
70.62101 -2.715239 -1.452557
73.68124 -2.774707 -2.016667
58.91013 -2.217266 -2.088392
48.97041 -1.826533 -2.084054
41.96894 -1.612841 -2.081778
36.73105 -1.388622 -2.031852
32.61911 -1.251664 -2.055134
29.40021 -1.123299 -2.047856
26.70362 -0.9883136 -2.080634
24.46062 -0.9020192 -2.056338
22.59041 -0.8366016 -2.048975
20.96024 -0.7959681 -2.054673
19.52493 -0.7347749 -2.044509
18.30602 -0.6727506 -2.054541
17.23783 -0.6346382 -2.050451
16.25121 -0.6158736 -2.039602
15.38095 -0.5888418 -2.045442
14.62214 -0.5585014 -2.043278
13.90333 -0.5320288 -2.046047
13.26291 -0.5109827 -2.066338
12.67897 -0.4657036 -2.062281
12.13619 -0.45071 -2.064519
11.65409 -0.4393376 -2.057486
11.18242 -0.4310677 -2.047371
10.7696 -0.3959902 -2.05452
10.37463 -0.401314 -2.061869
10.01465 -0.3773563 -2.049992
9.663348 -0.3561689 -2.064264
9.337211 -0.359694 -2.06201
9.033633 -0.3435257 -2.061271
8.758553 -0.3282833 -2.057646
8.482072 -0.3209677 -2.052651
8.243391 -0.305971 -2.063745
7.993059 -0.3047154 -2.060807
7.781874 -0.2987285 -2.062843
7.560396 -0.2844093 -2.059449
7.363888 -0.2828296 -2.06255
7.164577 -0.2765813 -2.052578
6.985082 -0.2583963 -2.050087
6.810354 -0.2577033 -2.051587
6.634109 -0.2469439 -2.051499
6.469471 -0.2398072 -2.055911
6.321007 -0.2373125 -2.059958
6.174218 -0.238535 -2.05577
6.03658 -0.2282396 -2.058938
5.903741 -0.2208506 -2.054581
5.76413 -0.2134046 -2.051091
5.63937 -0.215006 -2.057029
5.523884 -0.2134488 -2.04969
5.401791 -0.2084171 -2.052723
5.290614 -0.1950833 -2.060785
5.192797 -0.1906346 -2.052911
5.088939 -0.1868864 -2.055346
4.982136 -0.1900396 -2.056654
4.881918 -0.1806609 -2.060333
4.792777 -0.1790985 -2.05506
4.706604 -0.1790268 -2.059139
71.89926 -3.219603 -0.5106789
54.75008 -2.35774 -0.7353658
53.29598 -2.35833 -1.149305
52.89034 -2.320177 -1.519675
52.8648 -2.372023 -1.826664
48.98342 -2.19871 -2.013978
41.95177 -1.828344 -2.023542
36.70791 -1.62002 -2.034977
32.62298 -1.409103 -2.030897
29.38224 -1.290369 -2.069219
26.68999 -1.174083 -2.061957
24.45578 -1.08606 -2.052348
22.552 -0.980119 -2.070339
20.957 -0.9143115 -2.057305
19.55789 -0.8732162 -2.057589
18.29441 -0.8144464 -2.07304
17.23084 -0.7648088 -2.061929
16.2583 -0.7021762 -2.06577
15.38922 -0.6879272 -2.041516
14.61079 -0.6411712 -2.055923
13.91719 -0.6071667 -2.067961
13.26375 -0.5860122 -2.056605
12.68042 -0.5677696 -2.042711
12.15106 -0.5382854 -2.067379
11.63834 -0.514698 -2.054094
11.19115 -0.5022712 -2.06681
10.76542 -0.4708073 -2.047339
10.37672 -0.4656028 -2.053176
9.999022 -0.4399855 -2.058972
9.657958 -0.4281391 -2.060135
9.331631 -0.4073552 -2.057726
9.03841 -0.3901377 -2.060896
8.756344 -0.385519 -2.052926
8.49284 -0.377065 -2.061725
8.244035 -0.3651731 -2.057178
7.996682 -0.3518275 -2.059219
7.775852 -0.3426884 -2.053712
7.556869 -0.3303485 -2.056558
7.348862 -0.3259093 -2.051843
7.160826 -0.3124099 -2.048647
6.975867 -0.3116805 -2.056532
6.805004 -0.3035446 -2.049096
6.628424 -0.2938481 -2.049424
6.469259 -0.2806977 -2.054457
6.322944 -0.2740407 -2.051068
6.175228 -0.268102 -2.061495
6.028452 -0.2708002 -2.060266
5.901502 -0.2647206 -2.052515
5.772433 -0.2492491 -2.057613
5.646461 -0.2469222 -2.058362
5.518272 -0.2480302 -2.059702
5.405504 -0.2395233 -2.05069
5.297021 -0.2302312 -2.059203
5.185647 -0.232676 -2.053139
5.078498 -0.2227909 -2.060083
4.982143 -0.2158606 -2.053972
4.889481 -0.2174148 -2.059126
4.792638 -0.2071827 -2.05094
4.704597 -0.2021069 -2.060134
52.72988 -2.685925 -0.74275
52.48648 -2.678558 -1.116222
41.22467 -2.081208 -1.174329
41.91208 -2.12171 -1.461173
42.28562 -2.16802 -1.751006
41.94391 -2.074548 -2.023021
36.70807 -1.843321 -2.032815
32.64605 -1.618242 -2.026801
29.3656 -1.46511 -2.082
26.67354 -1.317054 -2.069888
24.43341 -1.224688 -2.06117
22.56215 -1.153456 -2.045363
20.94977 -1.074123 -2.050499
19.53117 -0.9669966 -2.060626
18.29532 -0.9386227 -2.070257
17.20867 -0.8705392 -2.054824
16.24745 -0.8229334 -2.068354
15.4014 -0.7822108 -2.051063
14.61404 -0.722325 -2.057428
13.91406 -0.7012437 -2.054906
13.25055 -0.6749961 -2.061347
12.67786 -0.6447883 -2.051555
12.14585 -0.6127598 -2.044778
11.63442 -0.5924626 -2.066578
11.17859 -0.5641112 -2.046483
10.75974 -0.551021 -2.0601
10.36469 -0.5216104 -2.064372
9.999573 -0.4944026 -2.054915
9.652099 -0.4778936 -2.061998
9.333545 -0.4781721 -2.046356
9.036961 -0.4601384 -2.05999
8.747024 -0.4448102 -2.057265
8.494115 -0.4304479 -2.053046
8.229087 -0.420746 -2.053738
7.997172 -0.4032019 -2.049644
7.766439 -0.3872027 -2.059587
7.559252 -0.380787 -2.058533
7.353788 -0.3650384 -2.059926
7.163431 -0.3672501 -2.051739
6.980448 -0.3518361 -2.055337
6.802924 -0.3435036 -2.052831
6.630215 -0.3299921 -2.061863
6.464969 -0.3307981 -2.05897
6.321935 -0.3230579 -2.058723
6.176054 -0.3155832 -2.058617
6.02921 -0.3091094 -2.058387
5.899117 -0.292092 -2.060625
5.763393 -0.2873794 -2.055084
5.635709 -0.2796347 -2.051583
5.515157 -0.2742506 -2.060524
5.400222 -0.2771906 -2.055955
5.295872 -0.2714781 -2.054068
5.183055 -0.2577843 -2.051673
5.079732 -0.2570719 -2.058786
4.98098 -0.245813 -2.051624
4.883675 -0.2440204 -2.053699
4.786104 -0.2420979 -2.057778
4.694237 -0.2410804 -2.058081
52.65341 -2.987195 -0.7369121
40.25717 -2.26685 -0.8188531
39.38886 -2.224428 -1.103096
39.23334 -2.201225 -1.391977
39.24194 -2.237788 -1.625568
39.53931 -2.222615 -1.900026
36.70992 -2.049616 -2.058489
32.61667 -1.837923 -2.062111
29.3753 -1.666638 -2.068858
26.66599 -1.499372 -2.058863
24.44221 -1.399334 -2.058477
22.57016 -1.275366 -2.073673
20.93095 -1.189765 -2.058485
19.52079 -1.107345 -2.040572
18.31004 -1.030179 -2.047002
17.22519 -0.9569079 -2.068111
16.24133 -0.9163303 -2.052193
15.38964 -0.870272 -2.040415
14.58813 -0.8249124 -2.043815
13.88453 -0.7806358 -2.062692
13.25081 -0.7527161 -2.063976
12.66748 -0.7130237 -2.047963
12.12142 -0.690815 -2.064226
11.642 -0.6649651 -2.058128
11.18041 -0.6240999 -2.050768
10.75657 -0.6002697 -2.066285
10.35767 -0.5763389 -2.062217
9.99869 -0.5578619 -2.051105
9.657529 -0.5423179 -2.055935
9.342262 -0.5267078 -2.046518
9.036196 -0.5030326 -2.058095
8.743834 -0.4864294 -2.055851
8.486097 -0.4739424 -2.056041
8.234862 -0.4712748 -2.051601
8.000773 -0.4498761 -2.059918
7.768915 -0.4411914 -2.0562
7.553011 -0.4248326 -2.062244
7.355696 -0.412543 -2.050755
7.155673 -0.4046758 -2.052684
6.972686 -0.3955981 -2.051704
6.79488 -0.3901798 -2.058401
6.636554 -0.3698807 -2.059054
6.470018 -0.3681483 -2.051925
6.315121 -0.362473 -2.049685
6.166848 -0.3430466 -2.050378
6.034845 -0.344499 -2.052173
5.888567 -0.329997 -2.049879
5.761518 -0.3223136 -2.054548
5.634307 -0.3239541 -2.060177
5.518047 -0.3149759 -2.051998
5.399907 -0.3109274 -2.052386
5.293 -0.2943663 -2.052461
5.182042 -0.2973487 -2.05796
5.079344 -0.2855655 -2.055576
4.982495 -0.2866036 -2.052064
4.878087 -0.2731733 -2.050671
4.788363 -0.274058 -2.058013
4.695914 -0.2677625 -2.053183
40.39113 -2.507656 -0.5660549
39.26183 -2.464669 -0.8607523
39.10867 -2.423149 -1.063471
39.03325 -2.484949 -1.352403
38.96458 -2.422918 -1.621421
41.9173 -2.646828 -2.041091
36.72346 -2.30135 -2.049461
32.57565 -2.023512 -2.032158
29.31701 -1.83095 -2.030205
26.63601 -1.695895 -2.036609
24.4272 -1.551067 -2.070003
22.52391 -1.416799 -2.048983
20.93874 -1.328732 -2.044857
19.49968 -1.213376 -2.057262
18.30767 -1.150105 -2.063615
17.20918 -1.084921 -2.059897
16.2425 -1.005376 -2.069844
15.3801 -0.9649782 -2.064864
14.60702 -0.9181233 -2.048138
13.89202 -0.8871232 -2.063588
13.25798 -0.8258654 -2.054921
12.65677 -0.8025243 -2.048661
12.1293 -0.7566093 -2.0657
11.64444 -0.7321098 -2.060251
11.16799 -0.7053167 -2.056005
10.75815 -0.6668614 -2.05038
10.35334 -0.6489789 -2.052303
10.0008 -0.6273333 -2.049159
9.651888 -0.6050995 -2.063797
9.337815 -0.5964442 -2.047323
9.02048 -0.5696603 -2.064431
8.738783 -0.550397 -2.056303
8.473232 -0.5404817 -2.050474
8.220262 -0.5176108 -2.060622
7.996524 -0.5026246 -2.050073
7.760936 -0.4819476 -2.051542
7.548749 -0.4772011 -2.049081
7.341439 -0.4552756 -2.059823
7.152129 -0.453175 -2.060098
6.970552 -0.43176 -2.054818
6.795091 -0.4263474 -2.050749
6.627983 -0.4188311 -2.054147
6.47133 -0.4113852 -2.056126
6.310955 -0.4010072 -2.053886
6.165993 -0.3848262 -2.056937
6.030715 -0.3788702 -2.060651
5.892631 -0.3662603 -2.060356
5.762808 -0.3657546 -2.058862
5.638447 -0.3492649 -2.054694
5.511887 -0.3502705 -2.054724
5.403736 -0.3449878 -2.060182
5.287567 -0.3310359 -2.052557
5.184185 -0.330361 -2.058391
5.075972 -0.3230451 -2.05274
4.971982 -0.3135338 -2.054121
4.883544 -0.3087511 -2.058535
4.786768 -0.3004148 -2.060095
4.696713 -0.2975725 -2.054022
39.95145 -2.75164 -0.5708187
39.19223 -2.696185 -0.8071886
39.0645 -2.680202 -1.098597
38.97852 -2.689936 -1.348139
38.96048 -2.675959 -1.60806
41.94651 -2.905741 -2.045261
36.67097 -2.511317 -2.085531
32.56683 -2.273882 -2.064432
29.3115 -2.028036 -2.032047
26.67709 -1.859065 -2.059338
24.43416 -1.710513 -2.037517
22.5403 -1.571238 -2.069896
20.92298 -1.445115 -2.064224
19.50639 -1.351187 -2.07101
18.27285 -1.27565 -2.053613
17.18926 -1.184239 -2.051692
16.21758 -1.126446 -2.051461
15.3778 -1.068214 -2.052727
14.58624 -1.024055 -2.057665
13.885 -0.9705874 -2.059162
13.25539 -0.9268037 -2.053389
12.65095 -0.8719743 -2.04892
12.1336 -0.8311036 -2.048346
11.62393 -0.8064095 -2.052579
11.16332 -0.7644567 -2.052702
10.75345 -0.7536855 -2.05715
10.35791 -0.7251207 -2.04635
9.999483 -0.6894088 -2.055335
9.651921 -0.6616771 -2.057119
9.32213 -0.640337 -2.04952
9.026107 -0.6203645 -2.047818
8.739689 -0.5989254 -2.05453
8.468732 -0.592779 -2.051554
8.224962 -0.5713708 -2.060551
7.982697 -0.5468614 -2.062352
7.764126 -0.5349177 -2.057808
7.552761 -0.5282708 -2.056933
7.344542 -0.5048167 -2.056932
7.146293 -0.4962939 -2.051095
6.965162 -0.4780873 -2.052256
6.798802 -0.4634103 -2.053769
6.630699 -0.4621 -2.05943
6.462905 -0.4498296 -2.053064
6.309808 -0.4348694 -2.05305
6.160994 -0.4248824 -2.058034
6.026772 -0.4169901 -2.05439
5.889025 -0.4022727 -2.054759
5.763331 -0.3940045 -2.055368
5.638502 -0.393886 -2.059162
5.518255 -0.3851671 -2.053196
5.396573 -0.3722429 -2.0507
5.284702 -0.3644225 -2.055771
5.182844 -0.3552565 -2.057272
5.07859 -0.3537729 -2.050467
4.97486 -0.3426555 -2.056756
4.882645 -0.3412005 -2.055975
4.788674 -0.3291466 -2.057699
4.694887 -0.3259338 -2.055223
39.8719 -2.991929 -0.566942
39.18319 -2.976119 -0.8431887
39.04729 -2.946804 -1.07237
38.97104 -2.920932 -1.384442
38.92827 -2.93119 -1.623341
41.90753 -3.201693 -2.043597
36.63589 -2.765379 -2.068363
32.59951 -2.437263 -2.055915
29.28996 -2.240813 -2.038655
26.65467 -2.00248 -2.049861
24.39688 -1.850909 -2.053756
22.53719 -1.711335 -2.064043
20.91198 -1.566645 -2.056913
19.48573 -1.461805 -2.073157
18.26304 -1.384657 -2.059698
17.2032 -1.308533 -2.051522
16.23037 -1.238851 -2.052168
15.35763 -1.157229 -2.053441
14.58548 -1.101967 -2.060465
13.87333 -1.052758 -2.063359
13.23515 -1.006675 -2.054907
12.65706 -0.9612053 -2.045026
12.11228 -0.9040261 -2.054278
11.61419 -0.8777338 -2.06009
11.17744 -0.8424172 -2.054129
10.75505 -0.805735 -2.047143
10.3569 -0.7882846 -2.057872
9.978709 -0.7560887 -2.060627
9.644706 -0.7226843 -2.050469
9.323939 -0.713092 -2.057473
9.016989 -0.6850768 -2.054234
8.746738 -0.6554718 -2.061846
8.470295 -0.6375424 -2.047294
8.226241 -0.6145001 -2.052911
7.986909 -0.600939 -2.061543
7.759125 -0.5913249 -2.053495
7.540707 -0.5760871 -2.054126
7.347468 -0.5515053 -2.062772
7.150677 -0.5402523 -2.05505
6.965666 -0.5293954 -2.052426
6.792488 -0.5192067 -2.049479
6.622612 -0.5005162 -2.049325
6.464671 -0.4871328 -2.053789
6.308428 -0.4730041 -2.052742
6.158771 -0.4626138 -2.052836
6.021597 -0.4611258 -2.055044
5.891593 -0.4434385 -2.052647
5.761563 -0.4303861 -2.054942
5.634125 -0.4275296 -2.05284
5.506976 -0.4143609 -2.060961
5.399528 -0.4125487 -2.060068
5.279654 -0.3997657 -2.051616
5.179861 -0.3910357 -2.053112
5.070872 -0.3853543 -2.060377
4.974858 -0.3796822 -2.056522
4.874803 -0.3710424 -2.057019
4.784825 -0.3652019 -2.055535
4.696741 -0.3573038 -2.057827
39.91448 -3.273892 -0.531047
39.22711 -3.210754 -0.8385995
39.03877 -3.162912 -1.123294
38.99113 -3.174541 -1.347415
38.93 -3.203076 -1.607887
41.86165 -3.40431 -2.046171
36.63859 -2.994159 -2.044034
32.54061 -2.655207 -2.045868
29.28281 -2.392695 -2.078083
26.63952 -2.156519 -2.068424
24.41212 -1.986437 -2.045104
22.50129 -1.84651 -2.039876
20.91016 -1.699199 -2.067278
19.47466 -1.577779 -2.059118
18.2767 -1.506227 -2.043847
17.18442 -1.419053 -2.048321
16.22025 -1.3158 -2.053606
15.34823 -1.271893 -2.062692
14.58654 -1.181026 -2.053013
13.87006 -1.132528 -2.057014
13.23679 -1.080033 -2.045952
12.64078 -1.030653 -2.05699
12.10368 -0.9798524 -2.0475
11.60856 -0.9436312 -2.062219
11.16954 -0.902808 -2.047089
10.7327 -0.8861091 -2.061313
10.35597 -0.8436497 -2.065982
9.989321 -0.8262627 -2.052359
9.641698 -0.7891534 -2.053827
9.314609 -0.7648528 -2.060668
9.022895 -0.7288916 -2.050064
8.736982 -0.7181656 -2.048282
8.460615 -0.6888691 -2.05226
8.214956 -0.6772916 -2.050009
7.982221 -0.6525543 -2.04791
7.746164 -0.6313615 -2.051911
7.536707 -0.6196104 -2.049656
7.335077 -0.5935687 -2.059308
7.142102 -0.5818104 -2.048557
6.965608 -0.5700784 -2.055104
6.778803 -0.5551366 -2.059913
6.611485 -0.5429353 -2.049014
6.453468 -0.5238988 -2.050823
6.305351 -0.5127545 -2.055918
6.1636 -0.4982582 -2.052713
6.02405 -0.4983093 -2.056928
5.88742 -0.4762258 -2.060672
5.754153 -0.4687488 -2.056799
5.632798 -0.4612211 -2.050417
5.507828 -0.4548255 -2.056171
5.38749 -0.4432506 -2.050117
5.287306 -0.4341055 -2.056295
5.179311 -0.4197622 -2.056256
5.075791 -0.4147132 -2.05757
4.966173 -0.4052254 -2.055411
4.871293 -0.3958041 -2.059024
4.775659 -0.3898274 -2.06029
4.693132 -0.3806383 -2.055754
40.32036 -3.553231 -0.5765743
39.27313 -3.480828 -0.8281282
39.07201 -3.485573 -1.093575
39.00363 -3.44081 -1.362926
38.94606 -3.427101 -1.608015
41.85639 -3.659542 -2.037927
36.65097 -3.196489 -2.049895
32.54586 -2.882651 -2.045435
29.27602 -2.554457 -2.060499
26.60914 -2.357015 -2.056242
24.37098 -2.15396 -2.052864
22.50994 -1.990997 -2.056724
20.86467 -1.845746 -2.075524
19.48463 -1.708405 -2.041306
18.25446 -1.610418 -2.047156
17.17468 -1.530152 -2.053351
16.20399 -1.443666 -2.057257
15.35779 -1.357648 -2.045905
14.57843 -1.295332 -2.042909
13.8566 -1.217819 -2.064378
13.23665 -1.161888 -2.054368
12.63344 -1.111763 -2.042855
12.10314 -1.078111 -2.058412
11.60136 -1.035441 -2.061695
11.15315 -0.9886029 -2.048842
10.743 -0.9460078 -2.061475
10.33198 -0.9220706 -2.045177
9.981337 -0.8843293 -2.051198
9.626361 -0.841374 -2.062524
9.308509 -0.8134726 -2.05421
9.007806 -0.7943581 -2.048619
8.735534 -0.7705274 -2.050502
8.465403 -0.7515494 -2.059597
8.210383 -0.7283955 -2.055331
7.982552 -0.6994407 -2.049344
7.756288 -0.6860986 -2.062232
7.535513 -0.6675189 -2.055718
7.337709 -0.6431262 -2.05888
7.14567 -0.6344858 -2.051239
6.956885 -0.6101412 -2.050477
6.786593 -0.5923334 -2.053611
6.621421 -0.5878066 -2.055794
6.450713 -0.5718265 -2.049237
6.306634 -0.5595532 -2.055853
6.161053 -0.5385345 -2.053979
6.014392 -0.5286349 -2.054897
5.884495 -0.5177633 -2.06034
5.752219 -0.506409 -2.06163
5.622034 -0.4979135 -2.057707
5.502645 -0.4835713 -2.055516
5.392077 -0.4800838 -2.055068
5.280475 -0.4611513 -2.061209
5.169199 -0.4540836 -2.058854
5.070459 -0.4506674 -2.052222
4.967237 -0.4406306 -2.054174
4.873383 -0.4347853 -2.05072
4.777908 -0.4194146 -2.051419
4.682933 -0.415059 -2.059772
39.63691 -3.750113 -0.8094012
39.20163 -3.702313 -1.070719
39.05377 -3.726253 -1.340993
39.02405 -3.706278 -1.609084
39.69886 -3.717496 -1.969046
36.59289 -3.451945 -2.079315
32.50483 -3.083028 -2.023266
29.24972 -2.788385 -2.069567
26.59481 -2.522486 -2.080182
24.37195 -2.303159 -2.073867
22.49757 -2.115254 -2.038868
20.87212 -1.972233 -2.037307
19.4677 -1.847418 -2.062339
18.25617 -1.713082 -2.043235
17.15282 -1.619763 -2.041179
16.19265 -1.535336 -2.070512
15.34068 -1.450389 -2.049735
14.55559 -1.38859 -2.065318
13.8635 -1.311539 -2.061165
13.21436 -1.259013 -2.046565
12.64074 -1.203396 -2.052566
12.0872 -1.144189 -2.064174
11.60635 -1.106786 -2.060786
11.16031 -1.045201 -2.048203
10.72591 -1.012938 -2.047876
10.33525 -0.9757549 -2.058262
9.965054 -0.9360244 -2.061225
9.625259 -0.9049898 -2.056313
9.307854 -0.8741028 -2.063505
9.015104 -0.853723 -2.059006
8.732717 -0.828513 -2.06265
8.453553 -0.8035169 -2.055457
8.200205 -0.779388 -2.055245
7.971397 -0.7550018 -2.048222
7.752052 -0.734157 -2.048162
7.536767 -0.7176181 -2.05642
7.329259 -0.6943527 -2.053554
7.135072 -0.6740789 -2.052429
6.953475 -0.6626406 -2.06128
6.772962 -0.6452511 -2.053389
6.612123 -0.6283864 -2.056416
6.445213 -0.6091181 -2.054207
6.297059 -0.5996103 -2.055418
6.154561 -0.5781004 -2.061535
6.005551 -0.5684119 -2.05512
5.873137 -0.5555028 -2.056898
5.745704 -0.5441785 -2.05398
5.621175 -0.5266042 -2.053777
5.505105 -0.525767 -2.060556
5.386444 -0.5131598 -2.058984
5.272265 -0.5038435 -2.060227
5.17415 -0.4832339 -2.059888
5.064441 -0.4747629 -2.052199
4.961259 -0.4694427 -2.051156
4.863181 -0.4557346 -2.059782
4.777885 -0.4489939 -2.057826
4.681525 -0.4460245 -2.055673
92.70843 -9.346072 -2.019156
69.41489 -7.037081 -1.976626
56.9421 -5.768366 -1.965442
39.52769 -3.97648 -1.633641
41.85813 -4.199345 -2.015821
36.59408 -3.663967 -2.049772
32.47868 -3.274514 -2.048877
29.21843 -2.941355 -2.052481
26.56612 -2.680723 -2.059822
24.3477 -2.460005 -2.064781
22.4629 -2.267118 -2.059526
20.8396 -2.108516 -2.044808
19.4425 -1.946118 -2.06443
18.22126 -1.852579 -2.067916
17.13841 -1.729643 -2.071113
16.18762 -1.634124 -2.048495
15.32032 -1.55477 -2.057195
14.55053 -1.461463 -2.051992
13.84083 -1.400603 -2.067598
13.19936 -1.328323 -2.050915
12.62966 -1.265269 -2.058752
12.09734 -1.214524 -2.044345
11.60937 -1.17572 -2.052058
11.15396 -1.135157 -2.059485
10.71694 -1.079085 -2.057285
10.33827 -1.047052 -2.056218
9.962009 -1.004336 -2.050199
9.623761 -0.9717324 -2.048978
9.307451 -0.942212 -2.060332
9.000984 -0.9112828 -2.052469
8.719504 -0.8874634 -2.047263
8.446817 -0.8574974 -2.055168
8.207842 -0.8353939 -2.05977
7.960353 -0.8076437 -2.052369
7.740888 -0.7820563 -2.054221
7.532218 -0.7663935 -2.055832
7.325873 -0.742538 -2.053265
7.1333 -0.7137756 -2.049217
6.948286 -0.703746 -2.062385
6.778292 -0.6864119 -2.051124
6.613151 -0.6619634 -2.056056
6.44991 -0.6494611 -2.056125
6.294446 -0.6299816 -2.049525
6.146434 -0.6222808 -2.052811
6.009382 -0.6088369 -2.057498
5.868174 -0.5929837 -2.053363
5.73977 -0.5757225 -2.052961
5.618243 -0.5723137 -2.055601
5.500694 -0.5507062 -2.057943
5.378286 -0.5419919 -2.059396
5.274085 -0.5335619 -2.052364
5.167529 -0.5161502 -2.050293
5.058257 -0.5062374 -2.050807
4.967208 -0.5016733 -2.056321
4.870209 -0.4885706 -2.059063
4.775696 -0.4806291 -2.053223
4.681062 -0.4769937 -2.060313
92.5909 -9.864972 -1.938943
69.38185 -7.484354 -1.926058
55.53623 -6.000033 -1.960295
48.7464 -5.205899 -2.033496
41.77332 -4.452498 -2.064256
36.57885 -3.897802 -2.051242
32.47678 -3.498241 -2.062644
29.23571 -3.154839 -2.074872
26.56866 -2.829127 -2.069985
24.33147 -2.587246 -2.05273
22.47842 -2.415576 -2.037803
20.84267 -2.248424 -2.073191
19.44472 -2.100103 -2.065955
18.23403 -1.963703 -2.070839
17.15083 -1.850234 -2.05534
16.18783 -1.739673 -2.064987
15.33233 -1.653427 -2.068408
14.53006 -1.568073 -2.061867
13.85024 -1.4866 -2.064145
13.20912 -1.425394 -2.048679
12.61659 -1.349271 -2.060869
12.09135 -1.299574 -2.053278
11.60031 -1.243205 -2.047379
11.14368 -1.199795 -2.056376
10.72333 -1.138419 -2.052161
10.32122 -1.107227 -2.058149
9.96639 -1.061831 -2.057701
9.609048 -1.025505 -2.051897
9.298973 -0.9970411 -2.046381
9.000791 -0.9650108 -2.06273
8.715775 -0.9355304 -2.048152
8.441799 -0.9027662 -2.062807
8.203576 -0.8759994 -2.052938
7.963127 -0.8541735 -2.052889
7.729005 -0.8266281 -2.048027
7.520628 -0.8039112 -2.062867
7.323002 -0.7882411 -2.056658
7.122993 -0.7630324 -2.060715
6.940279 -0.7487053 -2.059821
6.769922 -0.7288064 -2.062292
6.605727 -0.712387 -2.056652
6.442647 -0.6964592 -2.057438
6.294662 -0.6695928 -2.050191
6.143066 -0.6576938 -2.060094
6.003441 -0.6428192 -2.058655
5.863381 -0.6302685 -2.056786
5.742147 -0.6112721 -2.051367
5.620852 -0.6032326 -2.05114
5.49073 -0.5855287 -2.0513
5.38024 -0.5729227 -2.054372
5.270502 -0.5659056 -2.05507
5.160683 -0.5560346 -2.059282
5.06041 -0.5426516 -2.051683
4.955544 -0.5365637 -2.052955
4.862889 -0.5174077 -2.057567
4.767632 -0.5106287 -2.053864
4.673862 -0.4976127 -2.058276
92.48073 -10.52283 -1.929286
69.33514 -7.948674 -1.906779
55.4459 -6.327631 -1.897204
48.77881 -5.493563 -2.045017
41.74269 -4.717194 -2.063999
36.50036 -4.122375 -2.085721
32.4565 -3.667943 -2.029709
29.22805 -3.290994 -2.084688
26.54812 -3.009614 -2.03811
24.33628 -2.744995 -2.071366
22.43055 -2.56804 -2.064841
20.85096 -2.364963 -2.069476
19.44523 -2.222725 -2.041866
18.19311 -2.076507 -2.042763
17.11163 -1.956378 -2.042004
16.15536 -1.829462 -2.055799
15.30046 -1.729019 -2.070541
14.53193 -1.646726 -2.060108
13.83386 -1.557857 -2.04808
13.18669 -1.511234 -2.047924
12.61699 -1.422669 -2.048123
12.07693 -1.383009 -2.053433
11.57277 -1.320351 -2.046994
11.1264 -1.260626 -2.056764
10.70716 -1.223911 -2.054341
10.32174 -1.164773 -2.056732
9.948396 -1.135073 -2.049644
9.599225 -1.088623 -2.053437
9.294899 -1.063292 -2.058379
8.984294 -1.028378 -2.051126
8.703615 -0.9825195 -2.05273
8.438761 -0.9656201 -2.057548
8.189282 -0.9327317 -2.05462
7.960836 -0.9108456 -2.059605
7.72616 -0.8834234 -2.05957
7.521873 -0.8475865 -2.056831
7.308022 -0.8301134 -2.057277
7.129487 -0.8090125 -2.0485
6.934954 -0.7859756 -2.053175
6.758797 -0.7620212 -2.059699
6.591501 -0.7424605 -2.052543
6.436481 -0.7344126 -2.050657
6.282932 -0.7127361 -2.051992
6.13547 -0.6973106 -2.052903
6.005753 -0.6842079 -2.054445
5.869458 -0.6646114 -2.0546
5.73223 -0.6501338 -2.059638
5.613089 -0.6356941 -2.051597
5.496087 -0.6275781 -2.05231
5.377127 -0.6053084 -2.059657
5.27 -0.6029969 -2.054738
5.155961 -0.5815985 -2.051016
5.05118 -0.5689173 -2.050714
4.959092 -0.5643026 -2.055273
4.858357 -0.5521759 -2.055808
4.763761 -0.546073 -2.052923
4.671014 -0.5346307 -2.050545
92.38221 -11.1761 -2.033247
69.33337 -8.274217 -1.937613
55.43745 -6.599344 -1.91074
47.88904 -5.728287 -2.002517
41.77092 -5.038296 -2.035346
36.46792 -4.344662 -2.058185
32.44126 -3.888941 -2.056025
29.18093 -3.526372 -2.046741
26.53293 -3.162545 -2.053197
24.30438 -2.905726 -2.071058
22.42267 -2.710717 -2.074421
20.8338 -2.495157 -2.042972
19.41332 -2.336643 -2.072325
18.1854 -2.181516 -2.073515
17.12711 -2.064728 -2.05646
16.14831 -1.950852 -2.065276
15.29028 -1.82218 -2.040395
14.52421 -1.742575 -2.048519
13.82271 -1.647575 -2.054464
13.17913 -1.58053 -2.066768
12.6063 -1.517537 -2.056701
12.07804 -1.438663 -2.057423
11.56693 -1.386476 -2.045826
11.12301 -1.337728 -2.062805
10.69197 -1.282086 -2.063911
10.30134 -1.226353 -2.046569
9.947122 -1.199348 -2.050669
9.606853 -1.146983 -2.049495
9.275169 -1.111413 -2.06424
8.983865 -1.083431 -2.054463
8.706386 -1.040944 -2.061042
8.427511 -1.016513 -2.057011
8.188757 -0.9771173 -2.056954
7.942387 -0.9465612 -2.050494
7.719913 -0.9336776 -2.052063
7.508854 -0.8959207 -2.057554
7.302283 -0.8806303 -2.055994
7.117364 -0.8494667 -2.062214
6.935521 -0.825616 -2.056935
6.766393 -0.8109444 -2.054788
6.587667 -0.7962838 -2.057881
6.437554 -0.7720529 -2.060815
6.280533 -0.7510469 -2.059222
6.128794 -0.730218 -2.054348
5.997015 -0.7228866 -2.054877
5.856093 -0.7004542 -2.052929
5.73608 -0.6889485 -2.05564
5.612442 -0.676135 -2.052525
5.484866 -0.6583478 -2.056458
5.371544 -0.6466404 -2.057564
5.264706 -0.6313242 -2.052101
5.159239 -0.6236704 -2.057565
5.051806 -0.607021 -2.05329
4.952482 -0.589669 -2.055834
4.858644 -0.5862996 -2.054803
4.764529 -0.5741611 -2.051972
4.67331 -0.5614596 -2.052856

