ply
format ascii 1.0
element vertex 585
property float x
property float y
property float z
end_header
93.14459 -2.326591 0.7280152
92.60001 -2.281088 1.375412
92.40579 -2.385435 1.983649
91.53345 -2.288265 2.613407
92.25698 -2.353539 3.288937
93.68972 -2.339189 -0.6513488
93.69353 -2.358465 -1.272498
27.51397 -0.707606 -0.5567218
26.44657 -0.6498306 -0.72731
26.33167 -0.6681212 -0.8943663
26.2185 -0.6662961 -1.124062
26.1836 -0.6759676 -1.306061
26.14547 -0.6633853 -1.439188
26.0879 -0.6324634 -1.633791
26.13721 -0.6824889 -1.834922
26.69403 -0.6475089 -2.046466
24.49312 -0.6106114 -2.037752
22.58002 -0.586688 -2.061085
20.95546 -0.523439 -2.038005
19.54668 -0.5051133 -2.072708
18.30477 -0.473585 -2.046845
17.24019 -0.4163302 -2.071463
16.27694 -0.414786 -2.039443
15.40005 -0.3844495 -2.040685
14.63293 -0.3703399 -2.066033
13.92316 -0.3463539 -2.05442
13.27355 -0.3291858 -2.057896
12.67466 -0.3238809 -2.064324
12.14069 -0.311962 -2.060522
11.66546 -0.2872078 -2.049642
11.18924 -0.275905 -2.047592
10.77399 -0.2617231 -2.064611
10.37655 -0.2577744 -2.05068
10.00682 -0.2604577 -2.06476
9.658854 -0.2517831 -2.059757
9.35464 -0.2362633 -2.063772
9.035884 -0.225976 -2.060889
8.764396 -0.2159788 -2.051453
8.500764 -0.2160017 -2.048783
8.24055 -0.203919 -2.055811
8.007475 -0.1989185 -2.061708
7.779404 -0.1942314 -2.052028
7.565188 -0.1917346 -2.054823
7.361217 -0.180501 -2.054278
7.171381 -0.1832519 -2.051178
6.987928 -0.1732364 -2.060339
6.805226 -0.1736534 -2.052388
6.635855 -0.1630516 -2.059822
6.472162 -0.1686031 -2.060891
6.326196 -0.1594127 -2.05448
6.174969 -0.1500732 -2.054147
6.041154 -0.1467618 -2.056155
5.902642 -0.1452851 -2.060711
5.767893 -0.1482195 -2.061053
5.642044 -0.136036 -2.05816
5.524795 -0.1380811 -2.049705
5.411736 -0.1411359 -2.060874
5.300822 -0.1324618 -2.054882
5.185188 -0.1336975 -2.058791
5.082615 -0.1299305 -2.05302
4.982882 -0.1225181 -2.050577
4.891366 -0.124673 -2.050313
4.799514 -0.1157537 -2.055308
4.70366 -0.1209164 -2.055621
99.69275 -2.573819 0.09763954
92.87269 -4.618501 0.6259935
92.40668 -4.654305 1.244968
92.20041 -4.597548 1.941447
92.06244 -4.542807 2.512225
92.65717 -4.626626 3.234261
99.37147 -5.046483 -0.7884403
99.15965 -4.962335 -1.376823
92.76041 -4.616494 -1.86323
69.52566 -3.487055 -2.008013
55.60683 -2.798952 -1.960934
46.41049 -2.365312 -1.909448
41.93945 -2.111234 -2.026695
36.71418 -1.867779 -2.024985
32.63227 -1.655402 -2.04304
29.37303 -1.463675 -2.054456
26.6549 -1.36885 -2.062456
24.43124 -1.252354 -2.032064
22.55079 -1.142409 -2.06706
20.94996 -1.053832 -2.04591
19.54264 -1.000564 -2.065157
18.29756 -0.9360818 -2.070888
17.22606 -0.8669037 -2.040367
16.26085 -0.8339494 -2.045617
15.37217 -0.7757491 -2.064821
14.60807 -0.7264891 -2.053582
13.89935 -0.7120433 -2.067607
13.26611 -0.6672272 -2.063053
12.67513 -0.6255616 -2.046189
12.12969 -0.6079642 -2.062729
11.63822 -0.5801886 -2.066009
11.17904 -0.5680144 -2.050173
10.76224 -0.5422106 -2.045403
10.3648 -0.5270298 -2.048027
10.00729 -0.5050523 -2.064503
9.657303 -0.4863162 -2.060661
9.334188 -0.4662383 -2.051905
9.029634 -0.4478514 -2.051387
8.757009 -0.4329064 -2.060999
8.479084 -0.4286071 -2.062524
8.233508 -0.4135526 -2.058687
7.997469 -0.3988092 -2.048435
7.773552 -0.3858299 -2.058541
7.557908 -0.3855273 -2.051903
7.347385 -0.3740346 -2.062506
7.156471 -0.3621318 -2.048619
6.968315 -0.3522774 -2.061953
6.797397 -0.3410012 -2.052961
6.632301 -0.3301986 -2.054661
6.47167 -0.322264 -2.04956
6.316471 -0.3118688 -2.061525
6.177294 -0.3080952 -2.057164
6.02707 -0.3063021 -2.060644
5.897808 -0.2937466 -2.051501
5.77103 -0.2926626 -2.051118
5.635014 -0.285344 -2.053612
5.524907 -0.2720951 -2.056516
5.400196 -0.2726038 -2.059927
5.287321 -0.2647212 -2.050722
5.190031 -0.2640908 -2.058801
5.075908 -0.2514475 -2.060569
4.981856 -0.2460891 -2.056683
4.883746 -0.2503214 -2.053926
4.789585 -0.243228 -2.051568
4.700612 -0.2405865 -2.055892
92.57337 -4.736199 0.03223824
90.67482 -6.92094 0.6874378
92.25073 -6.951247 1.325982
92.11456 -6.965892 1.96515
92.07517 -7.054668 2.64935
92.19365 -7.003192 3.214334
76.36987 -5.792517 -0.5747532
53.43799 -4.01647 -0.7591245
53.36203 -4.057306 -1.173337
53.34795 -3.986539 -1.537819
54.86665 -4.178415 -1.946203
46.33116 -3.519715 -1.989063
39.63346 -2.958368 -1.951922
34.70516 -2.633585 -1.915719
32.57259 -2.482674 -2.034803
29.32582 -2.190538 -2.049758
26.65112 -2.024455 -2.048543
24.43206 -1.836941 -2.071215
22.49997 -1.699998 -2.067025
20.89115 -1.575805 -2.05269
19.51253 -1.463687 -2.049265
18.27865 -1.378898 -2.04272
17.20186 -1.295477 -2.055454
16.23928 -1.219395 -2.054471
15.35406 -1.16892 -2.056828
14.58065 -1.093276 -2.043535
13.8857 -1.049004 -2.045508
13.24545 -1.013616 -2.050964
12.66517 -0.9640402 -2.050456
12.11299 -0.904523 -2.062445
11.62576 -0.8760585 -2.057939
11.16837 -0.8410674 -2.054566
10.74774 -0.8008045 -2.045621
10.3542 -0.7749128 -2.045466
9.987635 -0.7550846 -2.050388
9.639283 -0.7324883 -2.050823
9.331542 -0.7083588 -2.049553
9.015241 -0.6724333 -2.048777
8.731294 -0.6665228 -2.05564
8.475472 -0.6361533 -2.055683
8.221882 -0.6279233 -2.053426
7.981521 -0.6093264 -2.052697
7.756171 -0.5908908 -2.047694
7.540865 -0.5715154 -2.058881
7.345395 -0.5571596 -2.062149
7.147042 -0.546856 -2.056173
6.963766 -0.5219427 -2.055731
6.788462 -0.5191906 -2.060694
6.624677 -0.5044294 -2.056448
6.459892 -0.4939398 -2.055881
6.305809 -0.4786064 -2.049081
6.16701 -0.4665732 -2.05169
6.027228 -0.460723 -2.053788
5.891707 -0.4456219 -2.057229
5.760322 -0.4407271 -2.051574
5.626731 -0.423281 -2.055671
5.509228 -0.4182021 -2.054781
5.392513 -0.4061169 -2.056594
5.280279 -0.3975155 -2.053603
5.174963 -0.38787 -2.054379
5.078296 -0.3883996 -2.059458
4.976208 -0.3776794 -2.054893
4.875099 -0.3687802 -2.053336
4.785276 -0.3635225 -2.054094
4.694582 -0.3556056 -2.053713
76.34156 -5.783654 -0.01818803
73.24059 -7.375773 0.4822317
75.0644 -7.622298 1.05518
76.81619 -7.742579 1.600274
76.83225 -7.703207 2.102869
76.89824 -7.77749 2.738218
76.81984 -7.704051 -0.5742937
42.59855 -4.275903 -0.6368239
42.35321 -4.286244 -0.9153783
42.31443 -4.306229 -1.218822
42.2765 -4.236426 -1.504377
42.25505 -4.245571 -1.805998
39.61655 -3.976321 -1.97648
34.60498 -3.507142 -1.917345
30.75653 -3.131709 -1.971345
27.95016 -2.813262 -1.9692
26.59198 -2.67451 -2.074379
24.37493 -2.464832 -2.058127
22.48933 -2.253094 -2.058396
20.86979 -2.094246 -2.039267
19.46625 -1.953107 -2.06254
18.23507 -1.826017 -2.067174
17.14767 -1.724487 -2.051363
16.19227 -1.626619 -2.041545
15.3365 -1.551944 -2.064519
14.55867 -1.462333 -2.045835
13.84659 -1.409809 -2.062574
13.22129 -1.330581 -2.068812
12.63999 -1.264741 -2.067504
12.09662 -1.208499 -2.052039
11.59222 -1.18096 -2.059093
11.15247 -1.131104 -2.060763
10.71049 -1.071747 -2.065293
10.32078 -1.051621 -2.05467
9.968268 -1.013091 -2.047174
9.616438 -0.9672616 -2.052491
9.295453 -0.9288316 -2.060116
9.010983 -0.911226 -2.05889
8.71794 -0.883926 -2.056407
8.445504 -0.853602 -2.060883
8.211172 -0.8281201 -2.053276
7.966736 -0.8004612 -2.0475
7.736813 -0.7884669 -2.063401
7.534226 -0.7628538 -2.060974
7.327954 -0.739812 -2.056516
7.134879 -0.7242045 -2.056657
6.943091 -0.703406 -2.056321
6.773679 -0.6838658 -2.0521
6.604 -0.6719528 -2.049813
6.444605 -0.6461152 -2.060329
6.292413 -0.6371716 -2.055239
6.151098 -0.6212267 -2.050805
6.013341 -0.6110006 -2.060453
5.870886 -0.5957764 -2.057553
5.743692 -0.5854539 -2.056863
5.614508 -0.5630628 -2.058508
5.49355 -0.5524848 -2.059458
5.3815 -0.5387009 -2.056157
5.269574 -0.5340242 -2.061179
5.169441 -0.5199399 -2.053874
5.060761 -0.5088211 -2.054932
4.957178 -0.4986327 -2.053746
4.866525 -0.491381 -2.051897
4.768775 -0.476479 -2.059853
4.682601 -0.4718336 -2.052585
76.84865 -7.734424 -0.03794073
53.81048 -6.814015 0.3908131
53.78369 -6.822722 0.7575482
69.74094 -8.781798 1.466648
69.81241 -8.762435 1.928015
70.5931 -8.907044 2.517985
42.5682 -5.402294 -0.3180868
42.47416 -5.365662 -0.5717983
36.74638 -4.655376 -0.8054483
36.83489 -4.6242 -1.013655
36.81898 -4.64066 -1.284717
36.50915 -4.645496 -1.548071
36.86492 -4.620281 -1.787095
34.49447 -4.379517 -1.931265
30.71103 -3.870586 -1.918603
27.58871 -3.468905 -1.968648
25.10597 -3.173702 -1.934442
24.28553 -3.081308 -2.03364
22.41526 -2.831788 -2.074267
20.81855 -2.626177 -2.066071
19.42105 -2.438429 -2.061287
18.16349 -2.284269 -2.059832
17.09612 -2.174794 -2.050218
16.13212 -2.049078 -2.03918
15.283 -1.935138 -2.061691
14.52229 -1.84164 -2.069373
13.8196 -1.75794 -2.046496
13.16584 -1.662366 -2.04864
12.59098 -1.588882 -2.043284
12.05587 -1.5166 -2.056663
11.57024 -1.469244 -2.045366
11.11251 -1.400064 -2.045381
10.68233 -1.361375 -2.048801
10.29817 -1.294906 -2.046443
9.934089 -1.248214 -2.065123
9.598932 -1.216432 -2.063386
9.269423 -1.179259 -2.057697
8.969569 -1.141829 -2.04639
8.686172 -1.092998 -2.047454
8.426455 -1.061098 -2.051678
8.176004 -1.027987 -2.062067
7.938708 -0.9991209 -2.049733
7.726194 -0.982739 -2.058022
7.501638 -0.9439258 -2.05286
7.302 -0.9303302 -2.053418
7.110702 -0.8922973 -2.061259
6.93235 -0.8724309 -2.049804
6.753803 -0.8510193 -2.050956
6.584529 -0.8274173 -2.058153
6.433805 -0.8169078 -2.052395
6.277288 -0.7902676 -2.054284
6.125722 -0.7798017 -2.050055
5.994731 -0.7624263 -2.060956
5.854064 -0.7435534 -2.056091
5.72881 -0.7283011 -2.05946
5.598785 -0.712033 -2.055462
5.48639 -0.6931058 -2.049692
5.366632 -0.6728977 -2.056408
5.257165 -0.6622641 -2.059466
5.156088 -0.655425 -2.059796
5.04503 -0.6425778 -2.053791
4.944471 -0.6269292 -2.054434
4.855293 -0.6109309 -2.058357
4.754512 -0.6009762 -2.051048
4.668443 -0.5864742 -2.055679
53.83814 -6.75525 -0.01763831
61.78172 -9.420395 0.4480348
60.39957 -9.160817 0.8731914
61.38381 -9.279535 1.345451
61.27549 -9.307907 1.79473
61.29523 -9.353695 2.180143
34.95801 -5.343028 -0.2299677
34.82381 -5.327461 -0.5143794
34.82724 -5.302438 -0.7446585
34.84143 -5.256893 -1.000456
34.77578 -5.264829 -1.257342
34.78782 -5.273544 -1.44329
34.76151 -5.256952 -1.702047
34.42606 -5.214027 -1.927371
30.55212 -4.635251 -1.967391
27.49973 -4.157702 -1.926269
25.00273 -3.799051 -1.968243
22.8899 -3.464882 -1.94443
22.16733 -3.389288 -2.020693
20.73397 -3.146049 -2.058477
19.35285 -2.956921 -2.059895
18.1085 -2.764709 -2.037715
17.05789 -2.580378 -2.049059
16.08041 -2.457582 -2.059368
15.22247 -2.327033 -2.05806
14.4583 -2.185828 -2.06799
13.77063 -2.079085 -2.065032
13.13182 -1.988741 -2.048719
12.55112 -1.91046 -2.047912
12.00961 -1.815728 -2.043241
11.53355 -1.739685 -2.048844
11.06706 -1.681079 -2.062171
10.65133 -1.61271 -2.046843
10.26453 -1.566831 -2.05298
9.907514 -1.507083 -2.047633
9.570278 -1.453186 -2.060891
9.238304 -1.409341 -2.063484
8.940119 -1.35359 -2.051312
8.668066 -1.315751 -2.048354
8.408578 -1.279793 -2.054266
8.15739 -1.244962 -2.063297
7.918984 -1.202475 -2.049888
7.699054 -1.171374 -2.059653
7.486628 -1.137815 -2.05416
7.280227 -1.103781 -2.050233
7.080739 -1.071217 -2.060621
6.904395 -1.054303 -2.051085
6.731991 -1.017739 -2.056113
6.566998 -0.9950394 -2.049398
6.403662 -0.9683741 -2.057602
6.252836 -0.9482234 -2.057644
6.104804 -0.928938 -2.061238
5.965724 -0.9111562 -2.050471
5.838116 -0.8842698 -2.060932
5.711315 -0.862456 -2.054229
5.579905 -0.8452684 -2.055298
5.463398 -0.8258649 -2.059738
5.344348 -0.8146378 -2.053436
5.234761 -0.7993314 -2.056945
5.127406 -0.7789886 -2.057966
5.028439 -0.7646612 -2.05116
4.929549 -0.7513923 -2.057005
4.838189 -0.7331352 -2.060827
4.744532 -0.7165397 -2.057317
4.648239 -0.7057891 -2.058134
61.83148 -9.402765 0.05713609
55.63948 -9.934501 0.4142714
55.66949 -9.919726 0.8445688
54.89115 -9.764798 1.177711
21.58849 -3.858881 0.614148
21.16677 -3.745124 0.7371533
55.66302 -9.946667 -0.3710431
28.99672 -5.176766 -0.4165788
29.04418 -5.168808 -0.6435932
29.0437 -5.192493 -0.8212556
29.03941 -5.158362 -1.024946
29.03611 -5.190828 -1.249832
29.03057 -5.158008 -1.439282
34.27125 -6.063017 -1.911478
30.43197 -5.403427 -1.963457
27.41766 -4.85418 -1.928782
24.90283 -4.416893 -1.953027
22.80827 -4.055373 -1.931756
21.05194 -3.733489 -1.959874
20.07438 -3.572795 -1.998776
19.26652 -3.43097 -2.055331
18.04657 -3.200513 -2.044816
16.96631 -3.01565 -2.049364
16.0133 -2.861978 -2.061422
15.16901 -2.690871 -2.048597
14.40853 -2.552873 -2.049739
13.7039 -2.431136 -2.04211
13.06965 -2.328869 -2.045661
12.5059 -2.232313 -2.068057
11.96963 -2.132826 -2.047118
11.47992 -2.033713 -2.063727
11.02902 -1.962058 -2.050525
10.60128 -1.881394 -2.044794
10.22366 -1.808797 -2.05279
9.869464 -1.758057 -2.053957
9.527895 -1.694482 -2.065331
9.205894 -1.636075 -2.056958
8.909347 -1.585565 -2.047401
8.632096 -1.540474 -2.057207
8.371799 -1.47929 -2.049083
8.121364 -1.435055 -2.056334
7.874654 -1.399072 -2.053937
7.666634 -1.362983 -2.055305
7.444109 -1.318853 -2.054629
7.254941 -1.285939 -2.049953
7.060208 -1.251879 -2.058948
6.87462 -1.221934 -2.056336
6.709818 -1.198429 -2.062024
6.543646 -1.158548 -2.050294
6.381531 -1.13605 -2.054769
6.228746 -1.113574 -2.060433
6.08218 -1.07629 -2.053431
5.945093 -1.053692 -2.05488
5.809459 -1.037413 -2.057979
5.684618 -1.007146 -2.051192
5.564355 -0.9843858 -2.052088
5.440045 -0.9627947 -2.050692
5.323243 -0.9464332 -2.055729
5.221552 -0.9266328 -2.050086
5.111567 -0.9062258 -2.056798
5.010714 -0.8865254 -2.055706
4.906947 -0.8765124 -2.060343
4.816082 -0.857926 -2.051532
4.719351 -0.8394055 -2.056734
4.63044 -0.8208213 -2.05808
55.69822 -9.916312 -0.02698454
49.54674 -10.11647 0.3819579
49.52817 -10.06676 0.7115085
49.38861 -10.12282 1.033391
19.83468 -4.054016 0.5460176
20.05973 -4.101973 0.7196924
49.53564 -10.10998 -0.3956669
49.52129 -10.12415 -0.7520338
44.4061 -9.045507 -0.9607792
44.36119 -9.087422 -1.259066
43.14019 -8.795577 -1.511255
45.46207 -9.257843 -1.987504
38.99479 -7.984527 -1.956202
34.10841 -6.920075 -1.968136
30.28953 -6.200281 -1.974279
27.25054 -5.539307 -1.943333
24.76443 -5.060032 -1.966878
22.71645 -4.616643 -1.96726
20.96841 -4.262946 -1.948792
19.42767 -3.94345 -1.965195
18.32697 -3.722784 -1.954641
17.94178 -3.663389 -2.045654
16.89768 -3.428977 -2.062544
15.94829 -3.235809 -2.042501
15.09882 -3.067823 -2.047587
14.32111 -2.917439 -2.055287
13.62967 -2.779791 -2.052161
13.02083 -2.663706 -2.064662
12.4319 -2.533906 -2.043607
11.91799 -2.428171 -2.053133
11.42361 -2.323505 -2.057251
10.97625 -2.237941 -2.063443
10.56419 -2.147275 -2.06571
10.16826 -2.06842 -2.048539
9.810029 -2.007597 -2.048691
9.484913 -1.934828 -2.058454
9.166126 -1.870506 -2.049785
8.862686 -1.812477 -2.048175
8.590833 -1.744293 -2.052288
8.332275 -1.697303 -2.063575
8.073694 -1.641066 -2.050326
7.839012 -1.605229 -2.050637
7.620371 -1.557431 -2.061114
7.416913 -1.513539 -2.060256
7.2108 -1.469986 -2.060073
7.028449 -1.431318 -2.062878
6.845163 -1.396958 -2.062705
6.675625 -1.353303 -2.054869
6.513496 -1.327163 -2.050587
6.353457 -1.293309 -2.053562
6.199248 -1.258038 -2.056049
6.058149 -1.239766 -2.05461
5.91654 -1.207105 -2.059836
5.785472 -1.182311 -2.053421
5.657393 -1.147815 -2.05884
5.536832 -1.127634 -2.059577
5.419997 -1.104097 -2.050996
5.304212 -1.07694 -2.056779
5.189592 -1.05341 -2.055545
5.088844 -1.040001 -2.057025
4.990467 -1.018228 -2.054186
4.881371 -0.9963045 -2.057626
4.790534 -0.9744985 -2.05943
4.698081 -0.9533037 -2.053276
4.610669 -0.9376935 -2.057897
49.56129 -10.06003 -0.0241819
46.31707 -10.66468 0.3078725
46.33485 -10.62239 0.6750734
46.27662 -10.68044 1.004328
19.78289 -4.53781 0.5863703
20.00172 -4.621899 0.7258038
46.13606 -10.64661 -0.3008319
45.62873 -10.53921 -0.6531023
45.20441 -10.39105 -0.9495791
46.32237 -10.61611 -1.287289
46.29877 -10.68472 -1.686546
45.23454 -10.40259 -1.916706
38.80519 -8.941013 -1.963522
33.90963 -7.793585 -1.935137
30.12928 -6.917962 -1.96939
27.126 -6.240605 -1.966784
24.66127 -5.665595 -1.931956
22.58224 -5.196517 -1.966294
20.82852 -4.778683 -1.950978
19.35109 -4.448461 -1.94845
18.02418 -4.135139 -1.960437
17.76284 -4.099257 -2.056509
16.81549 -3.883269 -2.041491
15.84789 -3.658079 -2.066475
15.00543 -3.444329 -2.050858
14.25506 -3.275974 -2.063214
13.56444 -3.130159 -2.042484
12.94897 -2.968482 -2.06792
12.35584 -2.856122 -2.055979
11.84121 -2.728917 -2.043397
11.36393 -2.604505 -2.046613
10.90566 -2.517286 -2.060067
10.50562 -2.426034 -2.053902
10.12035 -2.330981 -2.057394
9.75794 -2.237834 -2.05702
9.426537 -2.163632 -2.058048
9.110609 -2.087801 -2.046929
8.815834 -2.032847 -2.055743
8.532635 -1.969461 -2.063584
8.277746 -1.901149 -2.05743
8.035482 -1.846522 -2.059916
7.801607 -1.795873 -2.055659
7.5825 -1.746519 -2.060952
7.378947 -1.697319 -2.059985
7.168784 -1.648097 -2.053386
6.98674 -1.611099 -2.061854
6.811213 -1.570694 -2.062017
6.631621 -1.525383 -2.050612
6.468167 -1.485495 -2.052043
6.315917 -1.446953 -2.061799
6.163207 -1.413369 -2.056856
6.015522 -1.384583 -2.05621
5.888387 -1.35408 -2.056637
5.754771 -1.32469 -2.05667
5.626406 -1.294047 -2.061215
5.498201 -1.2621 -2.050285
5.385852 -1.240158 -2.057135
5.267879 -1.218759 -2.05171
5.164518 -1.186724 -2.058061
5.062655 -1.164295 -2.050938
4.953061 -1.146416 -2.058044
4.85514 -1.11662 -2.055907
4.767138 -1.099237 -2.059154
4.677924 -1.074069 -2.058917
4.582264 -1.055249 -2.052605
45.45285 -10.4859 0.03787602

