ply
format ascii 1.0
element vertex 539
property float x
property float y
property float z
end_header
98.28284 -2.450516 -1.978556
73.72458 -1.842056 -2.02644
58.99556 -1.484311 -2.008621
49.13045 -1.221051 -2.038787
42.12392 -1.091644 -2.050106
36.77182 -0.8957984 -2.049597
32.67832 -0.8053257 -2.023641
29.38439 -0.7647725 -2.0679
26.69409 -0.6972517 -2.034865
24.49079 -0.6310675 -2.031188
22.57953 -0.5829183 -2.052167
20.93943 -0.5266861 -2.036783
19.56914 -0.5101994 -2.042963
18.30281 -0.4519201 -2.042007
17.23199 -0.44855 -2.060762
16.26736 -0.3930504 -2.046166
15.40799 -0.4010096 -2.052146
14.6172 -0.3712295 -2.053465
13.92696 -0.3442885 -2.045425
13.27534 -0.3417762 -2.05618
12.69373 -0.3172349 -2.049608
12.14331 -0.3103958 -2.064877
11.65493 -0.3020015 -2.06021
11.19182 -0.2764234 -2.06069
10.77501 -0.2677449 -2.04696
10.37207 -0.2621901 -2.050738
10.00799 -0.2571384 -2.062119
9.677055 -0.2336472 -2.047253
9.348314 -0.2428659 -2.053973
9.045162 -0.22917 -2.051039
8.757315 -0.2151731 -2.054541
8.49587 -0.2201629 -2.049849
8.24819 -0.213947 -2.051559
7.996127 -0.2048514 -2.05148
7.783109 -0.1958247 -2.060714
7.566117 -0.1924509 -2.059909
7.355514 -0.1876134 -2.059546
7.162113 -0.1779774 -2.051806
6.987252 -0.1800249 -2.054289
6.805545 -0.173451 -2.054223
6.644375 -0.1671885 -2.054834
6.483654 -0.1574344 -2.057154
6.326657 -0.1615554 -2.053691
6.177613 -0.1607256 -2.052902
6.031024 -0.1455936 -2.059304
5.904039 -0.1533928 -2.057785
5.774065 -0.1437031 -2.059321
5.64938 -0.1395049 -2.058336
5.531053 -0.1339065 -2.056347
5.404307 -0.1384862 -2.057728
5.300107 -0.1339748 -2.052523
5.193328 -0.1327542 -2.059065
5.089643 -0.1227682 -2.056519
4.990471 -0.1273402 -2.055462
4.887942 -0.1223812 -2.051638
4.796591 -0.1154313 -2.059692
4.704988 -0.1193895 -2.056771
70.08872 -3.529062 -0.5483524
51.94386 -2.575168 -0.6751462
51.69736 -2.551121 -1.114916
51.70393 -2.592565 -1.39903
51.69977 -2.562647 -1.767157
49.13645 -2.436363 -2.058816
42.08716 -2.102023 -2.03339
36.68474 -1.828619 -2.078148
32.59917 -1.642227 -2.029385
29.36939 -1.463223 -2.064073
26.68117 -1.344634 -2.040115
24.44763 -1.249822 -2.043676
22.57266 -1.145798 -2.033098
20.95811 -1.070588 -2.069402
19.53342 -0.9889013 -2.057569
18.31352 -0.9116693 -2.072168
17.23394 -0.8599531 -2.064581
16.24429 -0.8328846 -2.056485
15.37479 -0.7762014 -2.065109
14.5941 -0.7433087 -2.062988
13.89016 -0.6972905 -2.05381
13.26329 -0.6626568 -2.052025
12.67464 -0.6387448 -2.05305
12.13538 -0.6155275 -2.056639
11.6347 -0.5930896 -2.04566
11.19218 -0.5705372 -2.047323
10.75362 -0.5394237 -2.045017
10.36668 -0.5242853 -2.045118
10.00594 -0.5087192 -2.049906
9.650601 -0.4847492 -2.059347
9.332006 -0.4782475 -2.056213
9.027664 -0.4454828 -2.052938
8.761682 -0.4385766 -2.061396
8.482257 -0.4247789 -2.054081
8.233486 -0.4132863 -2.050325
7.993023 -0.3957984 -2.062312
7.776802 -0.3913933 -2.055413
7.550262 -0.3757473 -2.048018
7.350582 -0.3625892 -2.062262
7.166699 -0.3612448 -2.051194
6.973806 -0.3488972 -2.051324
6.806687 -0.3448825 -2.058161
6.631286 -0.3383341 -2.062256
6.475665 -0.3189472 -2.056423
6.316956 -0.3177931 -2.053895
6.17345 -0.3060796 -2.049068
6.033814 -0.3081786 -2.052299
5.900886 -0.2985632 -2.053999
5.769825 -0.2859725 -2.059154
5.635914 -0.2869175 -2.058706
5.522745 -0.2761856 -2.055188
5.402632 -0.2691535 -2.053895
5.292117 -0.265632 -2.056906
5.190707 -0.2639494 -2.05602
5.080927 -0.2525551 -2.054697
4.983634 -0.2475668 -2.053446
4.878764 -0.2406372 -2.050357
4.788167 -0.2390259 -2.051995
4.703016 -0.2358705 -2.052016
33.78124 -2.519991 -0.7260134
33.56786 -2.547913 -0.918523
33.50105 -2.498369 -1.18168
33.42364 -2.559411 -1.412738
33.39526 -2.520097 -1.614304
36.63456 -2.770086 -2.050629
32.56016 -2.478488 -2.079449
29.29128 -2.211893 -2.029097
26.62994 -2.00681 -2.042751
24.42154 -1.854359 -2.033506
22.53112 -1.723104 -2.054569
20.90043 -1.575043 -2.072877
19.49363 -1.469443 -2.044964
18.26575 -1.370052 -2.041241
17.17902 -1.284988 -2.058388
16.22488 -1.228085 -2.0604
15.36677 -1.152324 -2.065532
14.58341 -1.105576 -2.054756
13.89348 -1.054606 -2.060723
13.23753 -0.9889718 -2.046715
12.66704 -0.9581648 -2.056784
12.1139 -0.91251 -2.043484
11.62253 -0.8700272 -2.06513
11.17331 -0.8476477 -2.064112
10.75232 -0.8069811 -2.053575
10.35951 -0.7821984 -2.045696
9.994463 -0.7451321 -2.046792
9.649507 -0.7383187 -2.050531
9.313821 -0.702377 -2.057858
9.015385 -0.6732367 -2.047049
8.735028 -0.66253 -2.047613
8.472205 -0.6314518 -2.054383
8.223094 -0.6170039 -2.052912
7.984894 -0.5980118 -2.048381
7.75898 -0.5915756 -2.05555
7.551466 -0.5649184 -2.05058
7.347013 -0.552785 -2.048674
7.150331 -0.532702 -2.050527
6.961163 -0.5305179 -2.061468
6.782063 -0.5176643 -2.060568
6.621058 -0.4986701 -2.061416
6.458929 -0.488083 -2.06214
6.310412 -0.4830319 -2.051967
6.164546 -0.4710982 -2.053857
6.02284 -0.4540095 -2.059352
5.88116 -0.4396469 -2.056596
5.761219 -0.436249 -2.050535
5.637477 -0.4304223 -2.060525
5.517416 -0.4221741 -2.055786
5.390213 -0.4044139 -2.053976
5.284995 -0.3997652 -2.055856
5.174491 -0.39655 -2.053771
5.075137 -0.3866801 -2.057997
4.97427 -0.3741766 -2.05798
4.876057 -0.3646523 -2.053545
4.780306 -0.3661551 -2.058675
4.694186 -0.3522861 -2.056944
33.71071 -3.41151 -0.7073781
33.50903 -3.378498 -0.9502115
22.18215 -2.236468 -0.7677851
21.75685 -2.185411 -0.8948853
21.41679 -2.146795 -1.05301
21.15146 -2.117728 -1.167502
21.06542 -2.116551 -1.351758
21.14408 -2.11667 -1.468215
21.26835 -2.146641 -1.629242
21.44658 -2.144759 -1.813447
22.48379 -2.286752 -2.040837
20.85112 -2.125026 -2.05818
19.47445 -1.982312 -2.072384
18.24875 -1.852895 -2.043328
17.16273 -1.730092 -2.066808
16.17851 -1.634373 -2.061634
15.31625 -1.556796 -2.050293
14.56407 -1.474683 -2.062813
13.86152 -1.407945 -2.068287
13.21433 -1.337614 -2.065352
12.62392 -1.276531 -2.053893
12.10222 -1.217194 -2.06432
11.60559 -1.174717 -2.045336
11.13442 -1.129099 -2.058294
10.72045 -1.071509 -2.058187
10.32854 -1.047254 -2.062196
9.969037 -1.009405 -2.055411
9.621428 -0.9702424 -2.05971
9.306933 -0.9394538 -2.064716
8.995955 -0.9129714 -2.060393
8.716718 -0.8742905 -2.059695
8.456614 -0.8576373 -2.060646
8.194924 -0.8314865 -2.051323
7.958146 -0.8115382 -2.05301
7.734666 -0.7757278 -2.056727
7.529661 -0.7593485 -2.05036
7.320625 -0.7400838 -2.060588
7.127889 -0.7258399 -2.059074
6.955602 -0.7052591 -2.05989
6.780023 -0.6789824 -2.058455
6.60639 -0.6656793 -2.052226
6.453108 -0.6462427 -2.057676
6.299018 -0.6396681 -2.054845
6.153631 -0.6265677 -2.059789
6.001863 -0.611975 -2.052001
5.870502 -0.594438 -2.055511
5.739021 -0.57487 -2.060264
5.613901 -0.5684234 -2.051228
5.495425 -0.5568753 -2.056907
5.385992 -0.5446364 -2.05382
5.271995 -0.5295709 -2.057471
5.167924 -0.5258641 -2.056923
5.064463 -0.5069377 -2.054052
4.964282 -0.5008464 -2.055883
4.864336 -0.4888082 -2.053572
4.771302 -0.4838155 -2.055801
4.676674 -0.4678451 -2.055053
21.77631 -2.76929 -0.4454646
20.9875 -2.658425 -0.5921144
20.33852 -2.589445 -0.7031482
20.25206 -2.570035 -0.8581965
20.15862 -2.525868 -1.000412
20.07038 -2.528851 -1.139831
20.04002 -2.528979 -1.286469
20.02452 -2.519438 -1.413875
19.99545 -2.528655 -1.5586
20.00462 -2.526217 -1.674457
20.02847 -2.54308 -1.843512
20.78084 -2.639574 -2.068402
19.40817 -2.457354 -2.048553
18.17471 -2.28194 -2.059167
17.09368 -2.17425 -2.043132
16.15537 -2.045073 -2.050721
15.28612 -1.921374 -2.046756
14.50527 -1.819798 -2.05006
13.82171 -1.73306 -2.044557
13.1781 -1.666229 -2.068023
12.59019 -1.584979 -2.04315
12.06767 -1.519972 -2.057701
11.55808 -1.470943 -2.059619
11.12067 -1.397651 -2.066898
10.69324 -1.347497 -2.04717
10.30298 -1.302456 -2.05047
9.93477 -1.24765 -2.048635
9.597572 -1.216341 -2.062268
9.271975 -1.176767 -2.059077
8.979678 -1.138807 -2.051376
8.693907 -1.097831 -2.049765
8.436439 -1.066282 -2.064032
8.182262 -1.034074 -2.050181
7.946088 -1.007107 -2.060644
7.718273 -0.977883 -2.056965
7.499833 -0.9559532 -2.058681
7.31172 -0.9254205 -2.048171
7.110162 -0.8920029 -2.055617
6.931469 -0.873252 -2.050951
6.751157 -0.8467542 -2.049197
6.590055 -0.8322632 -2.050051
6.432528 -0.8093876 -2.050489
6.270218 -0.7982836 -2.056877
6.134511 -0.7717114 -2.057033
5.993116 -0.7579034 -2.053567
5.861153 -0.7337384 -2.061669
5.732591 -0.7174143 -2.054132
5.606908 -0.702826 -2.053378
5.481038 -0.691133 -2.054874
5.363871 -0.679235 -2.053323
5.263372 -0.663535 -2.058375
5.154212 -0.6457659 -2.060007
5.052327 -0.6415554 -2.055229
4.950118 -0.6298195 -2.051348
4.850386 -0.6107911 -2.052287
4.761745 -0.5961382 -2.05783
4.665992 -0.5878288 -2.055302
21.44634 -3.262855 -0.4512931
20.77156 -3.135668 -0.5789428
20.25384 -3.068934 -0.7184067
20.19494 -3.048755 -0.8422593
20.07308 -3.053927 -0.9973949
20.02368 -3.04212 -1.146792
19.99893 -3.027615 -1.275829
19.95284 -3.037216 -1.392925
19.95774 -3.051033 -1.533253
19.95802 -3.048634 -1.683848
19.95646 -3.025784 -1.824982
20.72495 -3.154082 -2.060325
19.34875 -2.927615 -2.040423
18.13384 -2.770791 -2.056232
17.02755 -2.581553 -2.050048
16.07332 -2.456667 -2.042046
15.24497 -2.304039 -2.062665
14.46734 -2.192286 -2.068854
13.75889 -2.079667 -2.06696
13.12125 -2.005785 -2.068012
12.5568 -1.906208 -2.064702
12.02506 -1.816206 -2.060042
11.53268 -1.756284 -2.053424
11.08076 -1.692142 -2.052573
10.6489 -1.610898 -2.057748
10.26321 -1.549387 -2.059747
9.909509 -1.505484 -2.04621
9.55489 -1.451061 -2.050707
9.249047 -1.40176 -2.064052
8.949162 -1.357114 -2.064582
8.663155 -1.308686 -2.058763
8.39352 -1.284114 -2.060409
8.149563 -1.231359 -2.061673
7.921292 -1.204222 -2.060413
7.687666 -1.167132 -2.063472
7.477077 -1.133253 -2.055489
7.272841 -1.111805 -2.057417
7.082078 -1.080128 -2.054957
6.903616 -1.045081 -2.054504
6.732003 -1.028945 -2.059395
6.562644 -0.999305 -2.060804
6.408918 -0.9774542 -2.059226
6.255324 -0.9535829 -2.05003
6.105162 -0.9244597 -2.057199
5.968701 -0.9072418 -2.052626
5.833939 -0.8846501 -2.055641
5.706632 -0.8649036 -2.059357
5.580489 -0.8539834 -2.054548
5.464848 -0.8320691 -2.054418
5.349347 -0.8105854 -2.060889
5.236784 -0.8015229 -2.052274
5.135003 -0.7791154 -2.060174
5.035396 -0.7595305 -2.051673
4.932458 -0.7519134 -2.059647
4.838793 -0.7312362 -2.051916
4.738901 -0.7195151 -2.052697
4.655293 -0.7072186 -2.059149
88.74075 -15.72879 0.7171814
88.74039 -15.72668 1.328488
88.69848 -15.77492 1.808624
88.70264 -15.79826 2.543083
88.80177 -15.84152 3.214784
88.78566 -15.7677 -0.6442474
88.71215 -15.80437 -1.194195
88.75343 -15.73062 -1.852822
68.77185 -12.15986 -2.001152
20.36433 -3.617934 -0.708541
20.26302 -3.602306 -0.8441125
20.13536 -3.564107 -0.9834646
20.07079 -3.591233 -1.155694
20.05862 -3.567342 -1.266682
20.01844 -3.560652 -1.420807
19.99222 -3.555376 -1.579475
19.99947 -3.564879 -1.725502
20.07046 -3.554513 -1.844614
20.64166 -3.65363 -2.043897
19.27145 -3.41942 -2.070379
18.04678 -3.193756 -2.072883
16.98049 -3.032426 -2.069654
16.01103 -2.851521 -2.041105
15.15314 -2.696058 -2.053397
14.39074 -2.550782 -2.058212
13.69133 -2.450037 -2.055946
13.07991 -2.310953 -2.045989
12.49508 -2.226546 -2.052727
11.96283 -2.133414 -2.052594
11.47108 -2.033749 -2.059745
11.02626 -1.969496 -2.057198
10.61315 -1.891964 -2.063574
10.21911 -1.810425 -2.047332
9.868984 -1.761685 -2.065719
9.524054 -1.684325 -2.059857
9.20115 -1.636769 -2.06106
8.914338 -1.576141 -2.059083
8.636685 -1.5249 -2.049542
8.366109 -1.478537 -2.048007
8.116696 -1.447612 -2.059064
7.884024 -1.399564 -2.058672
7.659491 -1.369363 -2.061966
7.442209 -1.317954 -2.049152
7.25118 -1.288324 -2.050009
7.051707 -1.250754 -2.051122
6.876032 -1.219939 -2.056239
6.704834 -1.192516 -2.049817
6.538768 -1.163454 -2.06185
6.38623 -1.139923 -2.058606
6.223833 -1.102365 -2.058696
6.088307 -1.085496 -2.059891
5.940474 -1.05975 -2.054689
5.814141 -1.029592 -2.056951
5.683856 -1.016043 -2.059473
5.565776 -0.983146 -2.055925
5.443203 -0.9682955 -2.051791
5.329186 -0.943929 -2.059601
5.217738 -0.9309649 -2.056481
5.112961 -0.9071925 -2.059978
5.009119 -0.8887241 -2.058061
4.906987 -0.8691188 -2.060786
4.813119 -0.8508847 -2.060551
4.723193 -0.834648 -2.052456
4.63043 -0.8234804 -2.054969
88.82101 -15.78406 -0.07613932
66.65817 -13.56049 0.4539721
66.6693 -13.59814 0.9928124
66.59129 -13.62016 1.374703
66.62508 -13.60425 1.907599
66.61115 -13.6301 2.36185
66.70037 -13.5268 -0.4295341
66.6282 -13.64416 -1.014938
66.68525 -13.62988 -1.358
66.59833 -13.64305 -1.940456
54.77043 -11.14713 -1.941174
45.60087 -9.313684 -1.916096
39.00883 -7.971123 -1.971931
34.10981 -6.960992 -1.964237
30.29317 -6.14949 -1.953959
28.14921 -5.737369 -1.989666
26.19873 -5.352306 -2.037221
24.00342 -4.877931 -2.031088
22.14935 -4.518705 -2.053853
20.5447 -4.176308 -2.063588
19.15052 -3.892942 -2.058746
17.93808 -3.676473 -2.053811
16.87734 -3.449633 -2.066881
15.94114 -3.243149 -2.057982
15.0871 -3.085465 -2.065057
14.33203 -2.915801 -2.052365
13.62748 -2.769302 -2.046262
13.00126 -2.639084 -2.044124
12.44753 -2.533684 -2.067031
11.90836 -2.438498 -2.059897
11.41148 -2.329892 -2.063596
10.96925 -2.244221 -2.047037
10.55539 -2.143466 -2.053887
10.17066 -2.065086 -2.047378
9.821373 -1.991429 -2.052285
9.471004 -1.936363 -2.048664
9.160175 -1.864354 -2.056958
8.858004 -1.806783 -2.050224
8.588129 -1.743134 -2.053792
8.325125 -1.691651 -2.052721
8.085187 -1.648377 -2.052908
7.836769 -1.602522 -2.049554
7.626356 -1.556949 -2.061832
7.406798 -1.504476 -2.047741
7.217556 -1.474629 -2.051672
7.024191 -1.438525 -2.059163
6.837509 -1.399751 -2.050283
6.665683 -1.361514 -2.051397
6.510878 -1.320758 -2.056995
6.345271 -1.292217 -2.053017
6.202589 -1.25866 -2.053556
6.052962 -1.232458 -2.05019
5.918344 -1.209391 -2.058065
5.784911 -1.178071 -2.054763
5.658714 -1.156054 -2.05845
5.533744 -1.133412 -2.056353
5.418392 -1.105674 -2.052762
5.304838 -1.083348 -2.05645
5.190432 -1.055976 -2.054076
5.084483 -1.033203 -2.056129
4.988363 -1.010962 -2.054372
4.890513 -0.9956604 -2.051756
4.794449 -0.9746038 -2.053629
4.704163 -0.9554368 -2.053312
4.614667 -0.9389609 -2.053217
66.70728 -13.52249 0.04961449
58.73704 -13.48462 0.4113223
58.74284 -13.55257 0.8936355
58.82986 -13.54088 1.244958
58.83238 -13.55742 1.662377
58.79798 -13.49195 2.141459
58.75388 -13.56511 -0.4520332
58.76282 -13.48178 -0.8189922
58.85469 -13.5534 -1.252557
58.85458 -13.51268 -1.71803
54.44961 -12.54348 -1.981338
45.3076 -10.42595 -1.908701
38.76886 -8.932195 -1.983731
33.90396 -7.7989 -1.924012
30.13016 -6.911158 -1.929496
27.11018 -6.253164 -1.96026
24.93888 -5.741013 -1.986979
23.87671 -5.4939 -2.073084
22.01702 -5.083992 -2.073327
20.44019 -4.691777 -2.07334
19.06489 -4.39875 -2.071425
17.85229 -4.105248 -2.073032
16.78507 -3.868978 -2.055403
15.85966 -3.655913 -2.039274
15.0084 -3.466996 -2.046368
14.25374 -3.285443 -2.067143
13.57232 -3.127126 -2.057165
12.92866 -2.969539 -2.054175
12.35763 -2.851645 -2.05125
11.83915 -2.715289 -2.060211
11.35019 -2.611732 -2.045234
10.90968 -2.515763 -2.051207
10.50059 -2.409694 -2.050442
10.12239 -2.32413 -2.064723
9.753353 -2.252119 -2.052458
9.432473 -2.164786 -2.059632
9.10546 -2.10163 -2.054244
8.821763 -2.030424 -2.052917
8.543944 -1.969379 -2.049142
8.281185 -1.898947 -2.053339
8.03817 -1.854466 -2.057964
7.800386 -1.794516 -2.053645
7.579092 -1.75018 -2.051109
7.366518 -1.690066 -2.056798
7.17817 -1.658291 -2.056614
6.97889 -1.601422 -2.053819
6.810398 -1.566596 -2.050315
6.630543 -1.531297 -2.057884
6.474527 -1.493635 -2.056052
6.312454 -1.454135 -2.054898
6.162538 -1.419613 -2.058858
6.02268 -1.38768 -2.058932
5.88236 -1.350362 -2.054054
5.752341 -1.319567 -2.052419
5.628559 -1.294996 -2.051113
5.507796 -1.266168 -2.051848
5.386509 -1.233851 -2.051572
5.27233 -1.213301 -2.051132
5.16032 -1.183112 -2.060909
5.064292 -1.167345 -2.052895
4.958637 -1.145351 -2.059516
4.862273 -1.123256 -2.056881
4.763147 -1.097332 -2.054352
4.674701 -1.076889 -2.054463
4.584541 -1.054134 -2.052211
58.77388 -13.54593 -0.02740115

