ply
format ascii 1.0
element vertex 1074
property float x
property float y
property float z
end_header
51.04469 -33.28236 -3.458796
51.04495 -33.39175 -3.793007
50.32436 -34.61969 -1.704373
49.79427 -34.35428 -2.112784
49.24815 -33.92506 -2.496975
48.76595 -33.63414 -2.852237
48.2648 -33.31207 -3.312262
48.35223 -33.33349 -3.696222
48.29665 -33.32437 -4.138275
48.76459 -33.66906 -4.563551
49.56165 -34.18541 -5.034187
50.34718 -34.6569 -5.518669
51.2172 -35.33873 -6.113941
49.86025 -36.17572 -0.3931572
49.35427 -35.83596 -0.8708043
48.84801 -35.47367 -1.28813
48.25627 -35.11446 -1.687633
47.84629 -34.77098 -2.116406
47.3593 -34.42567 -2.431591
46.85046 -34.02647 -2.849781
46.45792 -33.76067 -3.251035
45.92679 -33.36747 -3.586298
45.76231 -33.29598 -3.91293
45.84484 -33.28168 -4.314183
45.92438 -33.39614 -4.767061
46.60495 -33.8597 -5.239071
47.40709 -34.45566 -5.690414
48.08263 -34.912 -6.306754
48.94966 -35.57627 -6.790646
49.7039 -36.15883 -7.310146
50.58644 -36.71914 -7.870599
51.47737 -37.41488 -8.417261
50.308 -36.62458 -0.02908164
48.81968 -37.3988 0.3779894
49.34666 -37.74268 0.8428956
49.84337 -38.19135 1.361106
47.87248 -36.64064 -0.3735755
47.34428 -36.18658 -0.7989381
46.8082 -35.87565 -1.294463
46.40783 -35.49464 -1.689218
45.96265 -35.14064 -1.980444
45.50934 -34.76645 -2.432118
45.08826 -34.4751 -2.759546
44.56974 -34.16028 -3.107575
44.22603 -33.77446 -3.451155
43.74648 -33.47707 -3.862612
43.43336 -33.17004 -4.237496
43.49382 -33.29066 -4.582631
43.4388 -33.28684 -4.953846
43.92913 -33.607 -5.386002
44.55019 -34.10898 -5.85781
45.29216 -34.66488 -6.368221
46.03577 -35.18636 -6.952053
46.74198 -35.82529 -7.471373
47.5179 -36.29265 -7.987339
48.29499 -36.8978 -8.504061
49.09049 -37.54357 -9.077701
49.8708 -38.16717 -9.676434
50.80102 -38.91018 -10.30521
51.71841 -39.56084 -10.96819
48.3575 -37.01269 0.05447914
46.8177 -37.79929 0.4311803
47.2798 -38.19434 0.8775437
47.83039 -38.4962 1.32968
48.27715 -38.90015 1.704118
48.83426 -39.35423 2.223086
45.85555 -36.94567 -0.3625678
45.40561 -36.64854 -0.8088812
45.00377 -36.2379 -1.241395
44.57637 -35.87922 -1.595007
44.13674 -35.54422 -2.030319
43.73974 -35.24247 -2.397405
43.25616 -34.94039 -2.717708
42.83576 -34.59101 -3.057689
42.49174 -34.20525 -3.476316
42.1131 -33.92568 -3.753791
41.6699 -33.64531 -4.070658
41.30209 -33.32943 -4.405836
41.3213 -33.25483 -4.823392
41.24171 -33.29344 -5.188682
41.42735 -33.41672 -5.623482
42.10228 -33.92558 -6.019694
42.63549 -34.39815 -6.489529
43.28539 -34.87865 -7.027887
44.03143 -35.50755 -7.484451
44.71336 -36.0309 -8.091581
45.3895 -36.61052 -8.57921
46.11707 -37.19448 -9.22265
46.82967 -37.76131 -9.711148
47.66714 -38.45888 -10.31581
48.49884 -39.03076 -10.98539
49.26104 -39.68312 -11.6191
50.18419 -40.46944 -12.26086
51.04334 -41.14262 -12.98128
51.99355 -41.91037 -13.71745
46.33352 -37.37806 0.05534921
44.9641 -38.09827 0.4222846
45.37344 -38.55318 0.8468547
45.8868 -38.89561 1.295389
46.32188 -39.32421 1.656865
46.79159 -39.74146 2.082506
44.06919 -37.41921 -0.3536923
43.65437 -37.03029 -0.7837699
43.14586 -36.64039 -1.198475
42.80132 -36.34966 -1.614982
42.37695 -35.97644 -1.971083
41.98259 -35.60819 -2.314629
41.57193 -35.22536 -2.633763
41.19646 -34.98595 -3.011216
40.76762 -34.68554 -3.336917
40.42106 -34.304 -3.735582
40.04799 -34.01062 -4.038671
39.73114 -33.74341 -4.355048
39.32177 -33.40223 -4.693482
39.20256 -33.3368 -5.043459
39.25167 -33.28382 -5.356389
39.16436 -33.18336 -5.731366
39.67004 -33.7085 -6.237654
40.27611 -34.1284 -6.656353
40.86003 -34.71304 -7.140639
41.46557 -35.21115 -7.663794
42.01463 -35.64827 -8.141912
42.67186 -36.25325 -8.668837
43.31744 -36.77297 -9.247592
44.04691 -37.3288 -9.715931
44.81586 -37.94212 -10.30825
45.49555 -38.56626 -11.00992
46.24986 -39.26114 -11.55044
47.0563 -39.86357 -12.24473
47.83962 -40.55961 -12.92641
48.68602 -41.36916 -13.54232
49.57301 -42.1133 -14.30987
50.43032 -42.86699 -15.05139
63.18434 -53.61347 -20.69595
62.67934 -53.20896 -21.04524
62.22576 -52.72249 -21.58558
62.09532 -52.67664 -22.04428
62.10952 -52.63684 -22.66821
62.82541 -53.3618 -23.59917
44.4757 -37.6865 -0.01303744
43.05944 -38.45665 0.4320569
43.53083 -38.88528 0.8318604
43.99511 -39.27366 1.23175
44.38979 -39.69312 1.685861
44.90959 -40.07872 2.059011
42.20432 -37.75468 -0.3760356
41.82305 -37.31954 -0.8118252
41.47223 -36.96422 -1.171269
41.08425 -36.69761 -1.568395
40.64382 -36.3148 -1.859858
40.32652 -36.01411 -2.271456
39.96018 -35.7054 -2.646541
39.54229 -35.37382 -3.014361
39.25115 -35.06249 -3.26505
38.8417 -34.66388 -3.639835
38.53125 -34.43796 -3.988805
38.19275 -34.13934 -4.26615
37.80355 -33.75069 -4.614372
37.49091 -33.53473 -4.961088
37.21914 -33.24889 -5.244544
37.24748 -33.30715 -5.643881
37.24528 -33.24536 -5.992319
37.48045 -33.50715 -6.386064
37.98761 -33.94529 -6.77672
38.55354 -34.42181 -7.261639
39.10614 -34.9346 -7.696637
39.6736 -35.47238 -8.228163
40.22326 -35.97838 -8.750628
40.81533 -36.51563 -9.221919
41.52225 -37.03343 -9.754148
42.12808 -37.56303 -10.32405
42.78339 -38.19954 -10.97461
43.46785 -38.81561 -11.52291
44.13433 -39.39526 -12.11369
44.91795 -40.118 -12.80542
45.68019 -40.74982 -13.5089
46.4736 -41.52327 -14.13878
47.24504 -42.26512 -14.90579
48.18134 -42.98829 -15.65436
60.90176 -54.31193 -20.33218
60.31487 -53.87017 -20.82259
59.97605 -53.45827 -21.15894
59.48131 -53.07364 -21.70691
59.06949 -52.73022 -22.05064
58.94515 -52.7499 -22.70912
58.89216 -52.69302 -23.29163
59.75531 -53.39155 -24.2674
61.16727 -54.65823 -25.34205
62.60332 -55.86501 -26.56559
64.06268 -57.15918 -27.92269
42.6534 -38.05503 0.01959228
41.34159 -38.78962 0.3926518
41.74813 -39.17411 0.7623681
42.13927 -39.55488 1.195569
42.49549 -39.90556 1.603388
43.0185 -40.33739 2.054832
40.51091 -38.07707 -0.3351609
40.11056 -37.68322 -0.7889643
39.79508 -37.39357 -1.115283
39.429 -36.96964 -1.498059
39.0633 -36.64309 -1.825142
38.73755 -36.3499 -2.218518
38.34743 -36.04977 -2.574799
38.02516 -35.72447 -2.943461
37.66529 -35.34261 -3.252962
37.38723 -35.11074 -3.580203
36.96791 -34.75307 -3.920869
36.65943 -34.49403 -4.243215
36.41417 -34.19963 -4.583911
36.02768 -33.82332 -4.876314
35.80439 -33.62392 -5.194911
35.49164 -33.32802 -5.414964
35.42863 -33.24589 -5.773837
35.462 -33.29721 -6.122274
35.5224 -33.33633 -6.470646
35.99808 -33.71201 -6.948792
36.46041 -34.22929 -7.355
36.96455 -34.64722 -7.814797
37.42297 -35.15786 -8.345316
37.94934 -35.64337 -8.833384
38.5598 -36.14896 -9.361842
39.10503 -36.67228 -9.7923
39.70326 -37.2536 -10.39142
40.26769 -37.85239 -10.99659
40.90712 -38.44847 -11.54937
41.54062 -39.00539 -12.12524
42.24543 -39.68935 -12.74504
42.87943 -40.25331 -13.41961
43.62507 -40.95492 -14.04759
44.3723 -41.71194 -14.69611
45.13882 -42.42591 -15.38883
46.03365 -43.18379 -16.22837
57.79026 -54.2632 -20.9866
57.42611 -53.83355 -21.37024
56.96517 -53.42724 -21.74076
56.54546 -53.04393 -22.28994
56.20345 -52.77499 -22.69411
56.07546 -52.63739 -23.31181
56.12209 -52.70555 -23.77355
56.97124 -53.47596 -24.69946
58.20531 -54.6352 -26.00264
59.45144 -55.89295 -27.11575
60.92561 -57.20694 -28.35315
62.36598 -58.54529 -29.7787
63.97513 -59.99668 -31.15596
40.89978 -38.38836 -0.01225073
39.6304 -39.12877 0.4340091
40.02665 -39.50505 0.7925196
26.6842 -26.37732 0.7909796
26.48407 -26.12329 1.050706
26.39898 -26.09124 1.294798
38.91528 -38.38889 -0.4240608
38.55814 -38.08247 -0.7422398
38.19902 -37.69437 -1.101287
37.8213 -37.29673 -1.530226
37.44305 -36.9859 -1.812561
37.18789 -36.70417 -2.175476
36.76781 -36.39633 -2.515861
36.53755 -36.0066 -2.861426
36.15593 -35.68877 -3.242048
35.88197 -35.37255 -3.500863
35.57334 -35.06869 -3.851305
35.29509 -34.79528 -4.182137
34.94392 -34.53049 -4.481249
34.67089 -34.21955 -4.7939
34.38799 -33.91815 -5.057447
34.1288 -33.67516 -5.409243
33.80933 -33.36085 -5.643898
33.73814 -33.24073 -6.00491
33.74042 -33.31311 -6.31742
33.61733 -33.27468 -6.616646
34.04329 -33.54251 -7.066534
34.47952 -34.05724 -7.458882
34.93578 -34.46079 -7.965605
35.41763 -34.98862 -8.440902
35.86161 -35.47299 -8.936961
36.38631 -35.87965 -9.357192
36.8578 -36.43195 -9.919885
37.45427 -36.93419 -10.40754
38.00084 -37.53242 -11.00065
38.60331 -38.05178 -11.55199
39.10195 -38.67838 -12.05656
39.70674 -39.22985 -12.71013
40.36552 -39.90442 -13.35294
41.03562 -40.56585 -13.94149
41.76851 -41.17986 -14.61518
42.41647 -41.84309 -15.26385
43.20831 -42.58551 -15.98472
55.22181 -54.52053 -21.02844
54.81575 -54.19573 -21.49185
54.51834 -53.7149 -21.92787
54.1139 -53.45552 -22.35222
53.61211 -53.00394 -22.704
53.42456 -52.70234 -23.16023
53.3541 -52.75839 -23.71351
53.34682 -52.63281 -24.36304
54.16766 -53.54307 -25.40195
55.44357 -54.78836 -26.51865
56.67856 -56.03184 -27.7205
57.89307 -57.1805 -28.98682
59.34615 -58.66665 -30.32594
60.82343 -60.02105 -31.80546
62.3023 -61.56087 -33.33648
39.21478 -38.74316 0.02478164
26.00346 -27.06904 0.2734412
25.82172 -26.79517 0.5264347
25.55948 -26.58571 0.7486966
25.31965 -26.28802 1.011281
25.14595 -26.12065 1.281048
26.41892 -27.47887 -0.3006808
26.6029 -27.61148 -0.537694
26.76404 -27.78912 -0.8416243
26.86393 -27.9348 -1.048016
35.98961 -37.30618 -1.79213
35.62722 -36.97728 -2.198853
35.28551 -36.73642 -2.481649
35.07355 -36.32354 -2.78939
34.75386 -36.01499 -3.107069
34.45307 -35.80067 -3.514198
34.12019 -35.4241 -3.804336
33.81106 -35.14705 -4.092404
33.52895 -34.88102 -4.36765
33.31912 -34.60116 -4.743273
33.04263 -34.2937 -4.974484
32.75422 -33.9923 -5.257151
32.48932 -33.76883 -5.551424
32.19742 -33.49515 -5.86288
32.03072 -33.22588 -6.126991
32.03727 -33.31798 -6.484042
32.06346 -33.25359 -6.834144
32.14288 -33.39623 -7.220095
32.57987 -33.86298 -7.657358
33.02467 -34.27229 -8.074587
33.44133 -34.75487 -8.539643
33.95075 -35.25682 -8.944698
34.39398 -35.6951 -9.489168
34.8034 -36.13223 -9.976227
35.35152 -36.6786 -10.50051
35.85737 -37.23621 -11.03146
36.35227 -37.73138 -11.51708
36.92628 -38.28872 -12.10556
37.49765 -38.94899 -12.71149
38.01757 -39.49695 -13.27782
38.60078 -40.17156 -13.9228
39.29885 -40.70129 -14.5532
39.86382 -41.4278 -15.20539
40.55125 -42.14137 -15.8948
41.22108 -42.7668 -16.65331
52.44389 -54.4361 -21.63054
52.06516 -54.01862 -22.02026
51.73967 -53.70695 -22.48955
51.34603 -53.30558 -22.96971
50.99675 -52.94252 -23.36292
50.79654 -52.72614 -23.85497
50.74923 -52.71687 -24.31235
50.64737 -52.66425 -24.92937
51.76021 -53.65381 -25.9623
52.82637 -54.88151 -27.10462
53.94807 -56.14598 -28.27099
55.27274 -57.38486 -29.54103
56.50426 -58.7108 -30.93178
57.84498 -60.12971 -32.29588
59.35505 -61.61916 -33.7911
26.28644 -27.24539 -0.0230256
24.56364 -26.84919 0.2239722
24.32561 -26.60793 0.5034086
24.17422 -26.37125 0.715983
23.92204 -26.13808 1.006208
23.7257 -25.94718 1.223642
25.01761 -27.35401 -0.2848713
25.20798 -27.54585 -0.501295
25.45905 -27.82036 -0.8100787
25.73301 -28.09311 -1.073497
25.94918 -28.34509 -1.368356
26.19651 -28.58231 -1.659613
26.41821 -28.88503 -1.911391
26.69476 -29.17627 -2.187703
26.79785 -29.33591 -2.505948
27.03485 -29.4951 -2.789513
27.13553 -29.60457 -3.103414
27.36672 -29.85823 -3.394422
32.22838 -35.19748 -4.309448
31.9337 -34.91776 -4.662569
31.72152 -34.59166 -4.940074
31.42863 -34.33756 -5.186409
31.24313 -34.11655 -5.472718
30.95387 -33.79454 -5.77878
30.6666 -33.56145 -6.094745
30.47194 -33.27604 -6.308126
30.4592 -33.24476 -6.688572
30.44106 -33.31754 -7.015224
30.46391 -33.26431 -7.293626
30.81485 -33.71424 -7.754138
31.19855 -34.09203 -8.196422
31.67583 -34.51112 -8.570922
32.07001 -35.04946 -9.010271
32.46678 -35.51721 -9.541798
32.88097 -35.93835 -10.00501
33.3442 -36.44373 -10.46495
33.88633 -37.00083 -10.98511
34.26669 -37.5131 -11.57191
34.77198 -37.99059 -12.13317
35.36509 -38.56366 -12.69268
35.83931 -39.15489 -13.22897
36.43545 -39.72275 -13.85777
36.92366 -40.35791 -14.50958
37.59089 -40.96531 -15.15091
38.09256 -41.65212 -15.78464
38.71799 -42.36692 -16.41937
39.41754 -43.0937 -17.20357
49.75539 -54.384 -22.19049
49.35558 -54.01496 -22.71844
49.01819 -53.53636 -22.99001
48.67708 -53.20646 -23.38599
48.32693 -52.81904 -23.87659
48.21498 -52.73501 -24.27879
48.23778 -52.652 -24.86867
48.34187 -52.79125 -25.56767
49.3267 -53.98784 -26.58459
50.35003 -55.07524 -27.76229
51.51052 -56.33932 -28.9359
52.67584 -57.57878 -30.27166
53.96106 -58.83984 -31.55985
55.22273 -60.29181 -32.92989
56.44251 -61.78309 -34.57894
24.77419 -27.06557 0.005521275
23.16954 -26.65321 0.2785466
23.02546 -26.44254 0.467185
22.79418 -26.19778 0.7477775
22.60594 -26.0184 0.9711653
22.42211 -25.75859 1.169573
23.58752 -27.14826 -0.2367258
23.7754 -27.33821 -0.5344293
23.99893 -27.62386 -0.7307807
24.21551 -27.84856 -1.015729
24.47457 -28.11578 -1.29116
24.67281 -28.37368 -1.546251
24.90992 -28.61857 -1.832327
25.14635 -28.87474 -2.1045
25.33691 -29.14781 -2.468837
25.57133 -29.38271 -2.743166
25.85907 -29.71049 -3.011752
26.09267 -29.97501 -3.355275
26.34484 -30.29998 -3.625158
26.64047 -30.53794 -3.991942
26.86007 -30.8352 -4.301343
27.11928 -31.21013 -4.600285
27.27071 -31.27874 -4.957046
27.5117 -31.62225 -5.313327
27.63519 -31.68273 -5.616364
29.25251 -33.58774 -6.300857
28.98643 -33.32146 -6.491402
29.0185 -33.25754 -6.819808
28.97821 -33.29184 -7.134761
28.94142 -33.19432 -7.455437
29.16751 -33.59399 -7.880404
29.56611 -33.95603 -8.232491
29.9621 -34.39134 -8.700633
30.36662 -34.82697 -9.128295
30.75139 -35.2332 -9.648955
31.15401 -35.78493 -10.04188
31.50731 -36.22714 -10.58289
31.94831 -36.66669 -11.05833
32.44375 -37.26167 -11.54473
32.89788 -37.7813 -12.12111
33.32288 -38.2295 -12.60429
33.78926 -38.84607 -13.20028
34.35145 -39.4098 -13.80056
34.84407 -40.02206 -14.40783
35.38243 -40.58283 -15.05239
35.92884 -41.24488 -15.70497
36.5199 -41.92192 -16.34774
37.09644 -42.63176 -17.07631
47.51345 -54.61636 -22.44128
47.17596 -54.23758 -22.74949
46.85095 -53.80981 -23.19052
46.53913 -53.42065 -23.55818
46.2071 -53.14555 -23.95408
45.88693 -52.73043 -24.41449
45.92062 -52.64892 -24.89875
45.82947 -52.64365 -25.42438
46.26965 -53.07943 -26.19537
47.23304 -54.10333 -27.30236
48.18208 -55.27026 -28.38715
49.21127 -56.48638 -29.68064
50.22318 -57.73928 -30.95652
51.50592 -59.15316 -32.3695
52.59323 -60.41425 -33.65221
23.36615 -26.85686 0.006003421
21.8988 -26.4521 0.2460688
21.72047 -26.23372 0.4633641
21.51462 -26.02655 0.7205462
21.36474 -25.84197 0.9299948
21.19629 -25.65563 1.157698
22.29993 -26.9383 -0.2153896
22.46058 -27.16646 -0.5235993
22.64331 -27.37348 -0.717374
22.81694 -27.59498 -0.9715364
23.03306 -27.89722 -1.298496
23.28044 -28.09014 -1.505902
23.43963 -28.3368 -1.778773
23.63667 -28.61303 -2.110733
23.88289 -28.88446 -2.384025
24.08506 -29.16804 -2.661253
24.36262 -29.42968 -2.939215
24.53292 -29.66286 -3.241695
24.81378 -29.95327 -3.571441
25.00764 -30.24137 -3.833113
25.29357 -30.49864 -4.182235
25.52975 -30.81318 -4.45013
25.76488 -31.13366 -4.854648
26.00622 -31.43766 -5.188633
26.24416 -31.80357 -5.476362
28.01865 -33.88192 -6.142754
27.86478 -33.65267 -6.419238
27.61667 -33.38242 -6.713715
27.52227 -33.24074 -6.968318
27.57274 -33.25176 -7.284081
27.56285 -33.32523 -7.583985
27.65829 -33.41247 -7.945448
27.96295 -33.83641 -8.41575
28.30023 -34.25248 -8.757155
28.69491 -34.6508 -9.272011
29.05878 -35.07754 -9.703987
29.40666 -35.53304 -10.18581
29.75629 -36.02179 -10.593
30.15121 -36.53255 -11.08041
30.63376 -37.03208 -11.63737
31.0034 -37.48778 -12.1372
31.4149 -38.03012 -12.71631
31.90785 -38.56777 -13.22618
32.35234 -39.16072 -13.78421
32.78384 -39.63655 -14.38936
33.36856 -40.32937 -15.01243
33.80266 -40.91081 -15.59399
34.36481 -41.58668 -16.26355
34.95329 -42.24809 -16.99478
35.45499 -42.92769 -17.60856
45.10091 -54.47857 -22.91252
44.72608 -53.99746 -23.3332
44.44393 -53.74921 -23.69524
44.18529 -53.27255 -24.09863
43.8687 -52.99483 -24.40641
43.54869 -52.78643 -24.88278
43.64146 -52.67016 -25.41397
43.4982 -52.70911 -26.01402
44.11161 -53.31914 -26.8111
45.01127 -54.52044 -27.91435
45.97305 -55.54889 -29.16867
46.9971 -56.73439 -30.34579
48.1014 -58.02258 -31.63263
49.21045 -59.42107 -32.95795
50.27449 -60.79083 -34.39247
22.11358 -26.70134 0.02132105
20.68251 -26.28409 0.2274126
20.51546 -26.10221 0.4857754
20.32482 -25.88214 0.6749021
20.16923 -25.71536 0.9231387
19.21867 -24.46961 1.067975
21.01409 -26.73612 -0.2254781
21.17308 -26.98255 -0.5031083
21.35255 -27.1957 -0.7201699
21.54224 -27.4166 -0.9520714
21.70932 -27.63269 -1.218791
21.87942 -27.90914 -1.466057
22.1192 -28.12967 -1.749672
22.30823 -28.3831 -2.005229
22.50743 -28.58519 -2.256497
22.68607 -28.87875 -2.592093
22.88666 -29.12133 -2.81578
23.09523 -29.37679 -3.10817
23.31827 -29.67594 -3.455861
23.52183 -29.92177 -3.770376
23.76641 -30.21154 -4.050894
23.98871 -30.54626 -4.319264
24.16548 -30.81293 -4.644347
24.42153 -31.09154 -4.990736
24.71801 -31.4035 -5.36134
24.898 -31.69123 -5.650253
26.70117 -33.96893 -6.344292
26.47545 -33.75076 -6.631721
26.28532 -33.48893 -6.895949
26.07058 -33.22518 -7.169939
26.12866 -33.27734 -7.473473
26.18025 -33.32271 -7.787119
26.17865 -33.33599 -8.072894
26.48363 -33.68614 -8.445751
26.80038 -34.11735 -8.890616
27.14948 -34.51019 -9.352036
27.44106 -34.92971 -9.740024
27.80399 -35.38703 -10.19802
28.16139 -35.86226 -10.65492
28.55389 -36.28873 -11.19445
28.92297 -36.74528 -11.62897
29.28596 -37.2701 -12.1337
29.69025 -37.803 -12.72514
30.09057 -38.32895 -13.2765
30.48705 -38.81868 -13.77786
30.97035 -39.43957 -14.39797
31.37197 -39.97574 -14.95774
31.93134 -40.58035 -15.60049
32.4199 -41.22153 -16.19806
32.86962 -41.78236 -16.88199
33.43266 -42.46833 -17.59656
33.98325 -43.21309 -18.29302
42.64407 -54.33858 -23.44723
42.34991 -53.91651 -23.89727
42.03524 -53.55051 -24.30784
41.74724 -53.16634 -24.66037
41.46047 -52.78125 -25.03078
41.47092 -52.72622 -25.5246
41.33759 -52.60334 -25.97252
41.35508 -52.66768 -26.52131
42.16724 -53.72055 -27.5376
43.03188 -54.74256 -28.69345
43.99797 -55.9979 -29.88106
44.94966 -57.16385 -31.09351
45.91384 -58.45148 -32.42002
20.83881 -26.51319 -0.02435395
19.52844 -26.12341 0.2388971
18.26854 -24.48467 0.4139213
18.11119 -24.25219 0.6164598
17.9725 -24.08478 0.852017
17.8288 -23.92171 1.033059
19.79636 -26.57772 -0.2491152
20.00983 -26.79421 -0.4606579
20.16724 -26.98743 -0.7069086
20.31342 -27.25405 -0.9489816
20.48717 -27.43096 -1.195173
20.66624 -27.70346 -1.4471
20.8432 -27.92844 -1.686023
20.96949 -28.11385 -1.966808
21.18739 -28.4133 -2.209681
21.35794 -28.63794 -2.508389
21.56407 -28.86982 -2.785449
21.73613 -29.12347 -3.082623
21.94309 -29.37026 -3.366042
22.09398 -29.67048 -3.623671
22.34981 -29.94885 -3.916019
22.53661 -30.21218 -4.246677
22.70883 -30.47385 -4.546386
22.9302 -30.77252 -4.814185
23.18995 -31.04536 -5.146379
23.41527 -31.36178 -5.483456
23.59113 -31.68636 -5.819658
25.3572 -34.00791 -6.599047
25.20014 -33.7639 -6.799149
25.02785 -33.52129 -7.102888
24.78304 -33.23685 -7.294433
24.8253 -33.3159 -7.653288
24.81475 -33.26853 -7.892413
24.7826 -33.21158 -8.165369
25.09426 -33.59851 -8.562737
25.38436 -33.99356 -8.991866
25.66792 -34.39452 -9.410524
25.97657 -34.78421 -9.844943
26.27862 -35.25595 -10.27438
26.59757 -35.70371 -10.74359
26.94167 -36.0882 -11.22029
27.2938 -36.63336 -11.75679
27.68285 -37.04365 -12.23059
27.99206 -37.58506 -12.75519
28.44008 -38.08567 -13.2272
28.77357 -38.59286 -13.76851
29.23467 -39.18848 -14.36133
29.64089 -39.73996 -14.94542
30.08538 -40.34122 -15.55393
30.50069 -40.94188 -16.14345
31.0032 -41.50974 -16.78111
31.44885 -42.10624 -17.48735
31.94605 -42.8012 -18.18678
40.64665 -54.5424 -23.73806
40.31419 -54.12157 -24.09589
40.14101 -53.82857 -24.45754
39.82693 -53.39339 -24.71331
39.60213 -53.00609 -25.09891
39.29189 -52.78379 -25.45
39.28552 -52.70573 -25.97594
39.22202 -52.66927 -26.47904
39.63295 -53.10006 -27.24401
40.36517 -54.16882 -28.37189
41.21882 -55.29059 -29.4729
42.00284 -56.29934 -30.69888
19.68182 -26.3735 -0.008119696
17.31898 -24.50578 0.1861823
17.22055 -24.33564 0.3933693
17.10078 -24.13129 0.6114275
16.96353 -23.97965 0.798945
16.81456 -23.78731 1.000797
18.70704 -26.38509 -0.1953655
18.85061 -26.63869 -0.437691
18.96568 -26.84063 -0.699298
19.12634 -27.06414 -0.9212429
19.26853 -27.22422 -1.171386
19.42987 -27.46822 -1.435833
19.61102 -27.69671 -1.653201
19.78521 -27.92926 -1.944031
19.90464 -28.16332 -2.180611
20.10689 -28.36968 -2.454445
20.26007 -28.64683 -2.694121
20.47593 -28.87379 -2.976995
20.59279 -29.15718 -3.239623
20.78071 -29.37819 -3.50601
21.0074 -29.64103 -3.799964
21.19199 -29.93114 -4.13584
21.34528 -30.2049 -4.387393
21.5514 -30.47285 -4.680695
21.77819 -30.78347 -4.998648
21.9448 -31.0111 -5.33454
22.17266 -31.33088 -5.658057
22.4148 -31.59059 -6.011721
24.05847 -34.04312 -6.792563
23.8877 -33.77645 -6.963413
23.73205 -33.52022 -7.258835
23.55305 -33.28556 -7.469297
23.57646 -33.27042 -7.747139
23.5398 -33.27699 -8.056396
23.56422 -33.21608 -8.329375
23.65955 -33.52692 -8.722585
23.97319 -33.90767 -9.162755
24.26094 -34.27182 -9.571102
24.57936 -34.67148 -9.984799
24.85501 -35.07676 -10.37781
25.10474 -35.49263 -10.87109
25.46587 -35.95546 -11.30013
25.73955 -36.40594 -11.81583
26.1101 -36.89171 -12.28959
26.41658 -37.40199 -12.75235
26.81753 -37.87184 -13.32082
27.12715 -38.37247 -13.8256
27.57556 -38.9157 -14.36684
27.95882 -39.51462 -14.98824
28.35039 -40.02398 -15.60619
28.71476 -40.62253 -16.21059
29.11199 -41.21312 -16.7602
29.59181 -41.82626 -17.40785
30.05772 -42.4957 -18.13556
30.57756 -43.19758 -18.83833
35.20653 -49.79514 -22.12691
35.81869 -50.59963 -23.05385
37.88793 -53.59464 -25.00394
37.70308 -53.28257 -25.35265
37.44069 -52.86301 -25.63444
37.32133 -52.65968 -26.05574
37.22921 -52.74196 -26.64861
37.2977 -52.67861 -27.10868
37.85237 -53.46881 -28.04994
38.53373 -54.55373 -29.16126
18.5573 -26.20931 0.009801703
16.36902 -24.393 0.1870779
16.22383 -24.21249 0.429692
16.11257 -23.99659 0.5961635
15.99004 -23.83285 0.7845016
15.86143 -23.6895 1.002366
17.60073 -26.22742 -0.19962
17.76098 -26.44376 -0.4403791
17.90323 -26.65387 -0.6938239
18.00307 -26.86675 -0.9028316
18.14041 -27.09337 -1.15981
18.32672 -27.31757 -1.358948
18.45002 -27.53965 -1.628449
18.5842 -27.75377 -1.86012
18.71383 -27.94446 -2.113873
18.89516 -28.21441 -2.350497
19.04996 -28.41035 -2.614919
19.19004 -28.69102 -2.878757
19.3993 -28.908 -3.150552
19.54962 -29.14293 -3.474867
19.71483 -29.40537 -3.726235
19.86744 -29.69096 -3.980214
20.03385 -29.94148 -4.308867
20.24517 -30.19259 -4.605955
20.44681 -30.47581 -4.909029
20.57397 -30.74416 -5.211628
20.79335 -31.01326 -5.522152
20.99453 -31.28974 -5.804485
21.19553 -31.60005 -6.177392
21.36517 -31.9315 -6.491492
22.6443 -33.81738 -7.193416
22.55647 -33.55121 -7.463027
22.37253 -33.32265 -7.683235
22.28359 -33.29584 -7.943108
22.28894 -33.24598 -8.263932
22.31342 -33.30628 -8.503971
22.40294 -33.40939 -8.849936
22.68647 -33.79099 -9.239963
22.95128 -34.14565 -9.637153
23.13978 -34.57344 -10.05081
23.47353 -34.9878 -10.47806
23.70721 -35.36434 -10.92488
24.00242 -35.8221 -11.39848
24.37296 -36.28008 -11.84404
24.65391 -36.72481 -12.36097
24.92858 -37.22233 -12.85204
25.31431 -37.69484 -13.37844
25.5826 -38.16843 -13.87195
25.99229 -38.68113 -14.44958
26.27749 -39.28702 -14.95331
26.68857 -39.84832 -15.58636
27.02432 -40.41354 -16.17105
27.50901 -40.94854 -16.79173
27.91665 -41.59246 -17.41683
28.25234 -42.25327 -18.12247
28.74951 -42.84953 -18.78685
33.0994 -49.39917 -22.1472
33.6661 -50.21661 -22.97685
34.14948 -51.03224 -23.84559
34.77975 -51.87048 -24.67999
35.30215 -52.73813 -25.7168
35.28859 -52.67341 -26.10479
35.34468 -52.69381 -26.65509
35.28663 -52.61705 -27.20402
35.49825 -53.00098 -27.82895
16.44955 -24.5884 0.0198417
15.36928 -24.25227 0.2147134
15.27219 -24.04155 0.3936599
15.17563 -23.89886 0.5681702
15.06124 -23.73826 0.7639274
14.92323 -23.5696 0.9560634
15.59069 -24.59599 -0.211158
16.70173 -26.29656 -0.4597085
16.78599 -26.47008 -0.6623054
16.93992 -26.68692 -0.8719625
17.08896 -26.92282 -1.137187
17.22531 -27.12057 -1.342355
17.3526 -27.32065 -1.603976
17.48177 -27.54094 -1.794455
17.60075 -27.76485 -2.086463
17.78373 -28.01418 -2.342521
17.87029 -28.22451 -2.594026
18.02746 -28.44619 -2.845969
18.18694 -28.70678 -3.087199
18.33846 -28.93353 -3.382498
18.51174 -29.12237 -3.620768
18.6294 -29.37917 -3.925799
18.83864 -29.691 -4.217938
19.01435 -29.90845 -4.497635
19.14206 -30.18512 -4.78356
19.31368 -30.42293 -5.091035
19.48697 -30.74077 -5.402661
19.67084 -30.99773 -5.699932
19.88356 -31.24584 -5.98644
20.02677 -31.53168 -6.338598
20.19352 -31.84933 -6.631199
21.51026 -33.85064 -7.341853
21.32428 -33.63855 -7.575165
21.21876 -33.41236 -7.81577
21.1445 -33.31312 -8.098616
21.09834 -33.25185 -8.396997
21.13549 -33.31845 -8.653028
21.18528 -33.35578 -8.933053
21.40023 -33.68745 -9.3917
21.66508 -34.07418 -9.796213
21.91783 -34.50573 -10.17584
22.13975 -34.91255 -10.58291
22.43624 -35.26271 -11.00811
22.68421 -35.72855 -11.47057
22.929 -36.12288 -11.9403
23.26434 -36.65146 -12.45348
23.52695 -37.08015 -12.9439
23.81446 -37.50401 -13.40396
24.14829 -38.01436 -13.99127
24.41367 -38.54404 -14.48074
24.80989 -39.10852 -15.03873
25.14146 -39.61223 -15.60622
25.46615 -40.1811 -16.22396
25.85058 -40.74634 -16.7688
26.22993 -41.31858 -17.44462
26.63572 -41.97709 -18.10888
27.07874 -42.63163 -18.7619
27.49189 -43.30354 -19.47285
31.614 -49.82441 -22.83018
32.13317 -50.61595 -23.73027
32.63906 -51.45004 -24.59679
33.18582 -52.38962 -25.60673
33.58502 -52.9178 -26.34887
33.5175 -52.67039 -26.69423
33.41181 -52.67047 -27.19187
15.49139 -24.44406 -0.009170714
14.47884 -24.14738 0.1897586
14.3587 -23.96466 0.3733415
14.28615 -23.7945 0.604542
14.16389 -23.63101 0.7485112
14.08842 -23.45967 0.9367771
14.69906 -24.46017 -0.1753624
15.6721 -26.13245 -0.4071157
15.81475 -26.32023 -0.6644704
15.89619 -26.56981 -0.8760143
16.0665 -26.74092 -1.107114
16.19039 -26.92107 -1.320598
16.25807 -27.13761 -1.572659
16.38665 -27.33502 -1.755603
16.5131 -27.55551 -2.001384
16.66195 -27.80521 -2.292403
16.79351 -28.00554 -2.488085
16.95889 -28.19994 -2.791722
17.08554 -28.43015 -3.053574
17.19183 -28.66619 -3.267627
17.32643 -28.93637 -3.530204
17.49132 -29.14857 -3.801815
17.65399 -29.42411 -4.058153
17.81422 -29.64226 -4.371268
17.92447 -29.92412 -4.633137
18.06713 -30.142 -4.926623
18.26366 -30.45528 -5.272303
18.41394 -30.66958 -5.562764
18.54925 -30.96163 -5.855689
18.73535 -31.23529 -6.166356
18.96013 -31.52764 -6.493585
19.11553 -31.85481 -6.824805
20.31161 -33.84816 -7.535083
20.17185 -33.6651 -7.803842
20.07803 -33.40584 -8.01033
19.92078 -33.25851 -8.275399
19.97544 -33.28635 -8.571943
19.99412 -33.28161 -8.79985
19.94908 -33.29933 -9.087561
20.19276 -33.60962 -9.51067
20.37371 -33.99876 -9.896946
20.66141 -34.41624 -10.26482
20.85494 -34.76463 -10.72756
21.14846 -35.17442 -11.155
21.35429 -35.60256 -11.58456
21.654 -36.0425 -12.06685
21.91132 -36.52264 -12.48165
22.12024 -36.92319 -12.97567
22.48136 -37.4519 -13.50763
22.70309 -37.89658 -14.01739
23.02608 -38.38406 -14.52879
23.33989 -38.89527 -15.11652
23.65878 -39.41036 -15.6415
23.98012 -39.9768 -16.22726
24.31458 -40.57116 -16.8618
24.65513 -41.12103 -17.46046
24.99164 -41.73191 -18.11118
25.43294 -42.33308 -18.7088
25.83987 -42.97432 -19.40571
29.68979 -49.54928 -22.89877
30.23656 -50.27359 -23.75758
30.7358 -51.1446 -24.52502
31.17227 -51.96605 -25.42426
31.65031 -52.85058 -26.38286
31.68622 -52.6632 -26.91369
14.58605 -24.30631 -0.01631421
13.59257 -23.97928 0.1896997
13.52146 -23.85876 0.3615562
13.41993 -23.67237 0.5623398
13.29122 -23.48269 0.7415003
13.20447 -23.3449 0.9212509
13.80587 -24.36137 -0.2081831
13.88217 -24.54335 -0.3848887
14.82207 -26.17262 -0.6549361
14.91543 -26.40829 -0.8237301
15.08277 -26.59193 -1.094562
15.16634 -26.80497 -1.280965
15.30298 -26.96409 -1.547309
15.39592 -27.16106 -1.775592
15.53866 -27.37155 -1.973911
15.64155 -27.62436 -2.238143
15.75836 -27.82779 -2.480982
15.89168 -28.0569 -2.68268
16.02117 -28.22907 -2.932719
16.13505 -28.49019 -3.205384
16.26909 -28.71034 -3.454491
16.37817 -28.94263 -3.711905
16.51406 -29.17207 -3.996195
16.67967 -29.42172 -4.287121
16.82926 -29.67925 -4.538682
16.92958 -29.95359 -4.817317
17.05997 -30.19258 -5.147954
17.20584 -30.44959 -5.380025
17.35699 -30.69491 -5.704445
17.52807 -30.94902 -6.012481
17.68619 -31.25977 -6.32516
17.87857 -31.5547 -6.670896
18.05199 -31.82454 -6.960052
19.15972 -33.88792 -7.685669
19.02827 -33.69038 -7.942212
18.92682 -33.41903 -8.203421
18.78756 -33.20726 -8.396287
18.8547 -33.31691 -8.691176
18.85293 -33.28471 -8.948545
18.81472 -33.23453 -9.236154
19.00824 -33.5621 -9.658657
19.21869 -33.93628 -9.984204
19.40194 -34.30072 -10.45512
19.62126 -34.71838 -10.83265
19.90752 -35.11619 -11.25194
20.12581 -35.51617 -11.66752
20.37547 -35.92156 -12.1534
20.61482 -36.3998 -12.66728
20.86555 -36.87098 -13.11051
21.0755 -37.30004 -13.5541
21.4235 -37.7321 -14.12768
21.64701 -38.2775 -14.63837
21.92036 -38.76147 -15.12941
22.2478 -39.26339 -15.70149
22.54061 -39.80563 -16.24644
22.90598 -40.38167 -16.90218
23.19504 -40.94138 -17.51711
23.54352 -41.57752 -18.13371
23.91414 -42.19294 -18.79636
24.25093 -42.83316 -19.51616
27.85223 -49.29305 -22.82293
28.27714 -50.08672 -23.6833
28.74738 -50.896 -24.55795
29.30499 -51.64168 -25.49187
29.69011 -52.53813 -26.40627
13.66098 -24.1622 -0.01730197
12.76619 -23.87631 0.1859279
12.67385 -23.71818 0.3644613
12.56312 -23.5788 0.5392457
12.47161 -23.39898 0.7171493
12.41357 -23.25031 0.9053527
12.91104 -24.19894 -0.1661212
13.03777 -24.41658 -0.402023
13.11217 -24.57426 -0.6071201
14.00306 -26.2664 -0.8281004
14.07938 -26.44765 -1.058321
14.192 -26.63394 -1.282216
14.30178 -26.81058 -1.465876
14.41496 -27.01094 -1.736593
14.51338 -27.21244 -1.959851
14.60578 -27.41806 -2.199275
14.71798 -27.61104 -2.407181
14.85636 -27.84454 -2.666067
14.9863 -28.03415 -2.870489
15.11329 -28.25633 -3.151948
15.21344 -28.52888 -3.367641
15.29815 -28.72655 -3.628074
15.46404 -28.94545 -3.920857
15.59673 -29.18346 -4.176591
15.68775 -29.46015 -4.464811
15.82393 -29.68668 -4.737402
15.99536 -29.91132 -4.985377
16.10021 -30.1657 -5.268185
16.24693 -30.43295 -5.581971
16.37926 -30.70725 -5.862374
16.51271 -31.00095 -6.167215
16.68666 -31.21954 -6.489008
16.79987 -31.52581 -6.816703
16.97956 -31.76734 -7.133297
18.12586 -33.91235 -7.852458
17.95856 -33.70332 -8.088496
17.85818 -33.4432 -8.322851
17.75057 -33.21374 -8.541059
17.73161 -33.25925 -8.848073
17.7326 -33.24917 -9.145174
17.75682 -33.23407 -9.406568
17.90392 -33.57 -9.759164
18.09765 -33.90521 -10.17806
18.27164 -34.28096 -10.55664
18.50408 -34.68032 -11.00611
18.70592 -35.02797 -11.35531
18.88676 -35.45643 -11.85901
19.11358 -35.88788 -12.26035
19.36525 -36.33572 -12.72223
19.59865 -36.70512 -13.20073
19.87435 -37.16169 -13.71273
20.08207 -37.62735 -14.15671
20.32287 -38.10716 -14.73939
20.64146 -38.62215 -15.26126
20.86782 -39.12289 -15.84079
21.19913 -39.71651 -16.40432
21.4777 -40.1865 -16.96711
21.79191 -40.77529 -17.59664
22.05779 -41.41235 -18.22012
22.40967 -41.98467 -18.80313
22.71491 -42.55114 -19.4567
23.12346 -43.21254 -20.24621
26.61618 -49.86177 -23.69915
27.01029 -50.60937 -24.5862
27.46548 -51.42591 -25.43007
12.81797 -24.04193 -0.002368964

